<?xml version="1.0" standalone="no"?>
<!DOCTYPE svg PUBLIC "-//W3C//DTD SVG 20010904//EN"
 "http://www.w3.org/TR/2001/REC-SVG-20010904/DTD/svg10.dtd">
<svg version="1.0" xmlns="http://www.w3.org/2000/svg"
 width="468.000000pt" height="377.000000pt" viewBox="0 0 468.000000 377.000000"
 preserveAspectRatio="xMidYMid meet">

<g transform="translate(0.000000,377.000000) scale(0.100000,-0.100000)"
fill="#000000" stroke="none">
<path d="M2883 3473 c-14 -7 -29 -11 -34 -8 -4 3 -18 -4 -30 -16 -21 -21 -21
-22 -3 -32 11 -6 22 -15 25 -20 4 -5 13 -6 20 -1 12 7 50 8 233 5 l38 -1 -6
-57 c-7 -57 -8 -145 -4 -211 1 -24 -6 -40 -27 -62 -16 -17 -33 -30 -39 -30 -5
0 -7 3 -3 6 3 3 -3 15 -14 27 -10 11 -19 28 -19 38 0 13 -10 17 -42 17 -40 1
-45 -2 -64 -37 l-21 -39 72 5 72 5 -2 -32 c-2 -35 -21 -52 -47 -44 -9 2 -19 0
-23 -6 -8 -12 -16 -12 -34 -1 -13 8 -13 12 0 28 13 16 12 17 -3 5 -9 -8 -22
-11 -28 -7 -6 4 -19 0 -28 -7 -32 -28 -47 -31 -24 -6 16 18 20 28 12 33 -8 5
-6 13 6 26 16 18 16 19 -2 20 -10 0 -31 2 -46 4 -17 2 -33 -3 -43 -16 -10 -10
-22 -16 -27 -13 -8 5 -31 -1 -93 -26 -11 -5 -28 -11 -38 -14 -10 -3 -16 -10
-13 -14 6 -9 5 -9 -67 -15 -27 -2 -53 -9 -59 -15 -19 -19 -1 -41 39 -48 21 -4
44 -11 51 -17 9 -7 16 -7 23 0 6 6 49 8 106 6 92 -4 98 -3 115 19 10 13 18 18
18 11 0 -7 -18 -30 -40 -52 -22 -22 -40 -43 -40 -48 1 -20 21 -37 47 -39 15
-1 34 -4 42 -5 8 -2 20 7 27 20 10 20 10 28 -3 47 -8 13 -11 29 -7 35 5 9 2
10 -11 5 -15 -5 -16 -4 -5 9 15 18 48 11 67 -12 11 -14 15 -14 39 2 34 22 53
6 30 -26 -18 -26 -22 -69 -5 -69 5 0 7 -4 4 -10 -4 -6 10 -10 34 -10 66 0 99
55 51 85 -6 3 -10 13 -10 21 0 11 11 14 44 13 25 -2 51 2 58 8 10 8 18 8 31
-2 17 -12 17 -14 -8 -40 -14 -16 -25 -34 -25 -41 0 -26 32 -45 69 -42 34 3 36
5 39 43 3 28 -1 43 -14 52 -25 18 -13 25 50 28 64 3 67 -1 60 -80 -10 -110
-10 -135 -2 -135 5 0 4 -8 -1 -18 -9 -16 -11 -33 -12 -107 0 -10 -5 -25 -11
-32 -6 -7 -12 -66 -15 -130 -2 -64 -8 -122 -13 -129 -7 -7 -7 -20 -1 -37 5
-14 8 -27 6 -29 -10 -10 -12 -104 -3 -130 7 -20 7 -33 -2 -43 -10 -12 -10 -15
0 -15 9 0 10 -3 1 -13 -6 -8 -8 -16 -5 -19 3 -4 1 -22 -4 -42 -6 -20 -6 -38
-2 -41 5 -3 9 -31 8 -63 0 -81 0 -82 20 -76 9 4 4 -5 -13 -19 -24 -20 -34 -23
-54 -15 -19 7 -29 5 -43 -10 -18 -18 -18 -19 8 -45 16 -16 38 -27 54 -27 34 0
42 -8 29 -31 -5 -11 -6 -19 -1 -19 5 0 7 -14 4 -30 -4 -26 -1 -30 21 -30 31 0
49 22 52 61 3 38 4 38 46 41 33 3 34 2 35 -32 3 -70 3 -70 33 -70 35 0 41 8
47 58 6 47 15 56 53 47 29 -6 30 -8 26 -51 l-4 -44 39 0 c39 0 40 1 40 33 0
40 24 65 63 65 31 -1 30 4 29 -143 -1 -93 -4 -123 -14 -140 -18 -32 -26 -119
-28 -307 -1 -80 -5 -109 -15 -118 -17 -14 -21 -35 -5 -25 6 3 10 0 11 -7 0 -7
2 -24 4 -38 1 -14 -3 -41 -9 -60 -7 -20 -9 -48 -5 -62 5 -21 1 -33 -22 -59
-33 -37 -35 -41 -14 -33 8 4 15 10 15 15 0 5 4 9 9 9 14 0 10 -49 -5 -61 -11
-9 -14 -9 -14 0 0 8 -7 8 -21 -3 -12 -8 -28 -12 -35 -9 -9 3 -14 -1 -14 -12 0
-9 -4 -14 -9 -10 -5 3 -13 0 -17 -6 -4 -7 -3 -9 4 -5 5 3 12 1 14 -4 2 -7 112
-12 310 -15 l306 -5 7 28 c7 36 3 92 -8 92 -4 0 -5 5 -1 11 4 6 8 115 10 242
3 250 7 305 31 382 8 28 17 79 19 115 4 71 9 106 19 131 6 17 -27 29 -88 32
-36 2 -45 -9 -13 -17 22 -5 24 -10 20 -63 -2 -32 -6 -92 -9 -133 -4 -56 -10
-80 -25 -94 -16 -16 -21 -17 -35 -6 -9 7 -14 19 -11 26 3 7 1 16 -4 19 -18 11
-60 99 -60 126 0 22 -4 27 -16 22 -11 -4 -22 1 -31 13 -10 13 -16 15 -21 7 -4
-7 -29 -11 -57 -11 -28 0 -59 -1 -70 -3 -17 -3 -20 1 -19 33 1 22 -3 35 -8 32
-6 -4 -5 2 1 13 6 11 8 23 5 25 -13 13 -13 83 0 103 8 12 11 26 8 32 -9 13
-58 11 -72 -3 -7 -7 -20 -9 -31 -7 -16 5 -17 8 -7 21 11 13 10 15 -6 9 -15 -6
-17 -4 -13 14 6 21 6 21 -16 2 -12 -10 -30 -25 -40 -32 -15 -12 -17 -12 -11 4
6 14 4 16 -7 9 -26 -17 -81 -32 -95 -27 -10 4 -11 10 -3 24 11 21 0 26 -19 7
-9 -9 -12 -9 -12 0 0 7 4 12 9 12 13 0 23 32 13 42 -6 6 -16 2 -26 -8 -9 -9
-19 -14 -22 -12 -2 3 5 13 16 23 28 26 25 41 -5 21 -21 -14 -24 -14 -19 -1 10
25 -10 17 -39 -17 -18 -20 -24 -34 -17 -38 17 -11 -28 -45 -63 -46 l-32 -2 54
50 c29 27 50 52 47 55 -3 4 -19 -5 -34 -19 -22 -22 -29 -24 -39 -13 -8 8 -9
16 -4 20 6 3 10 13 9 23 -1 64 14 533 18 557 3 17 9 60 13 96 4 36 11 71 15
77 4 6 9 87 12 179 4 144 8 170 25 194 30 42 25 50 -33 49 -29 0 -78 1 -108 3
-42 3 -59 -1 -74 -15 -18 -17 -20 -17 -35 0 -9 10 -24 16 -34 14 -13 -3 -16 2
-14 18 4 27 26 41 46 31 36 -19 71 -22 71 -7 0 15 -79 56 -106 56 -22 0 -27
20 -25 109 3 154 8 200 25 227 10 14 15 32 12 39 -7 20 -75 30 -99 15 -18 -11
-19 -10 -13 7 6 14 5 16 -5 6 -18 -18 -32 -16 -25 2 6 17 -9 20 -20 4 -4 -6
-20 -9 -39 -6 -18 3 -38 0 -45 -6 -10 -9 -12 -9 -8 3 7 20 -25 21 -59 3z m-64
-455 c-5 -18 -9 -34 -9 -35 0 -2 -9 -3 -20 -3 -11 0 -20 3 -20 7 0 6 51 63 56
63 2 0 -2 -15 -7 -32z m-77 -26 c-12 -16 -29 -35 -38 -43 -16 -13 -17 -12 -10
6 4 11 8 24 9 29 1 5 11 20 21 33 29 34 44 12 18 -25z m407 -17 c-14 -15 -21
-17 -31 -7 -18 18 19 56 37 39 11 -10 10 -15 -6 -32z m-79 26 c0 -12 -20 -25
-27 -18 -7 7 6 27 18 27 5 0 9 -4 9 -9z m455 -1270 c-3 -6 -11 -11 -17 -11 -6
0 -6 6 2 15 14 17 26 13 15 -4z m440 -521 c-3 -5 -16 -10 -28 -9 -21 0 -21 1
-2 9 28 12 37 12 30 0z"/>
<path d="M2940 3322 c-19 -16 -21 -24 -15 -60 6 -38 10 -42 42 -48 41 -8 52 1
60 50 10 63 -39 97 -87 58z"/>
<path d="M3300 2999 c0 -5 5 -7 10 -4 6 3 10 8 10 11 0 2 -4 4 -10 4 -5 0 -10
-5 -10 -11z"/>
<path d="M2571 2862 c-5 -9 -7 -30 -4 -45 5 -24 10 -27 42 -27 58 0 82 30 55
69 -19 27 -79 29 -93 3z"/>
<path d="M2528 2693 c-23 -26 -31 -108 -13 -123 8 -7 15 -20 15 -29 1 -13 3
-13 16 4 9 12 12 30 8 47 -3 16 -1 28 4 28 5 0 13 12 17 27 4 19 1 31 -13 45
-17 18 -19 18 -34 1z"/>
<path d="M2637 2692 c-11 -12 -17 -36 -17 -68 1 -49 1 -49 16 -22 8 15 23 32
34 38 23 13 26 36 6 56 -18 18 -20 18 -39 -4z"/>
<path d="M2728 2671 c-21 -21 -23 -38 -5 -44 9 -3 7 -10 -6 -24 -17 -19 -17
-22 -2 -37 9 -9 14 -19 11 -24 -2 -4 -1 -14 5 -22 7 -12 9 -9 10 10 4 55 19
110 30 110 16 0 10 38 -7 44 -19 7 -15 9 -36 -13z"/>
<path d="M2859 2683 c-21 -5 -37 -42 -30 -68 5 -18 9 -17 39 16 24 28 29 39
20 46 -7 5 -20 8 -29 6z"/>
<path d="M2940 2658 c-11 -18 -18 -39 -15 -46 3 -8 5 -19 5 -25 0 -7 4 -6 10
3 6 9 5 17 -3 22 -6 4 0 9 16 13 33 9 49 28 41 49 -10 26 -33 19 -54 -16z"/>
<path d="M3040 2671 c-5 -11 -10 -32 -10 -47 l0 -27 35 37 c19 21 33 42 30 47
-10 16 -44 10 -55 -10z"/>
<path d="M3131 2671 c-13 -24 -22 -101 -12 -101 11 0 21 25 21 49 0 10 9 26
20 36 25 23 25 30 0 32 -11 1 -24 -6 -29 -16z"/>
<path d="M3246 2674 c-10 -7 -15 -29 -15 -67 0 -31 -2 -61 -6 -67 -3 -5 1 -22
9 -37 18 -34 23 -23 29 59 2 32 10 66 19 75 28 33 29 51 2 49 -13 0 -30 -6
-38 -12z"/>
<path d="M2822 2568 c-14 -14 -16 -28 -3 -28 9 0 24 30 18 36 -2 2 -9 -2 -15
-8z"/>
<path d="M3024 2565 c-8 -21 6 -41 17 -24 12 19 11 39 -1 39 -6 0 -13 -7 -16
-15z"/>
<path d="M2920 2549 c-13 -16 -20 -18 -47 -10 -25 7 -35 6 -44 -6 -8 -9 -9
-17 -3 -21 10 -8 10 -28 -2 -81 -5 -26 -4 -32 5 -27 7 5 10 14 7 22 -6 17 20
44 43 44 23 0 41 19 34 37 -3 8 5 25 17 39 13 13 19 24 14 24 -5 -1 -16 -10
-24 -21z"/>
<path d="M3042 2518 c-7 -7 -12 -24 -12 -39 0 -26 2 -27 32 -18 34 9 48 24 48
52 0 20 -49 24 -68 5z"/>
<path d="M3017 2408 c-5 -17 3 -48 13 -48 12 0 23 38 15 50 -9 14 -22 13 -28
-2z"/>
<path d="M2970 2141 c-11 -22 2 -72 14 -53 4 7 12 10 17 7 5 -4 9 10 9 29 0
40 -22 49 -40 17z"/>
<path d="M621 1839 c-53 -10 -61 -16 -32 -27 21 -7 21 -8 -8 -39 -28 -31 -32
-32 -93 -29 -34 3 -65 5 -67 5 -2 1 2 8 9 16 16 19 0 19 -26 0 -10 -8 -31 -15
-46 -15 -16 0 -28 -4 -28 -10 0 -15 69 -80 85 -80 9 0 16 -11 17 -27 0 -16 2
-32 3 -38 2 -5 3 -16 4 -22 1 -8 15 -13 34 -13 25 0 39 7 55 30 13 17 18 30
12 30 -5 0 -10 9 -10 20 0 17 7 20 40 20 27 0 40 -4 39 -12 -1 -7 -1 -29 0
-49 1 -34 3 -37 36 -41 43 -5 60 11 52 51 -7 35 8 51 50 51 32 0 33 -1 33 -42
0 -56 10 -70 45 -64 34 6 31 4 47 51 10 32 18 40 37 40 19 0 27 -8 37 -37 7
-21 10 -39 6 -42 -4 -2 -7 -46 -6 -98 1 -67 -3 -99 -14 -116 -9 -14 -12 -33
-9 -52 4 -16 2 -32 -3 -35 -9 -5 -11 -45 -9 -140 0 -11 0 -38 0 -60 0 -22 0
-51 0 -65 2 -58 2 -88 1 -140 -1 -30 -2 -62 -2 -70 0 -34 -10 -146 -15 -158
-3 -8 -14 -10 -32 -5 -16 3 -35 6 -44 6 -10 -1 -15 6 -13 20 4 33 4 33 13 19
6 -10 11 -9 22 4 12 16 12 17 -3 11 -9 -3 -18 -2 -20 4 -4 13 -48 -19 -48 -37
0 -8 5 -14 11 -14 26 0 -4 -17 -31 -18 -32 -1 -32 4 -1 43 12 14 7 13 -18 -6
-52 -39 -49 -46 21 -48 35 -2 83 -5 108 -7 140 -13 240 -6 240 17 0 5 -6 9
-12 8 -24 -3 -38 1 -38 10 0 12 43 10 51 -1 3 -5 16 3 29 17 16 17 19 24 8 20
-11 -4 -18 0 -23 15 -5 15 -12 19 -26 15 -12 -4 -19 -2 -19 6 0 7 -10 3 -23
-9 -32 -31 -41 -27 -34 13 3 19 3 35 -1 35 -6 0 -13 109 -13 190 1 86 26 208
46 222 7 5 6 14 -2 28 -16 25 -17 82 -1 98 8 8 17 8 30 1 11 -6 25 -8 33 -6
16 7 30 76 17 89 -6 6 -4 21 5 39 12 24 21 29 42 27 26 -3 26 -4 23 -75 -3
-70 -3 -72 22 -79 46 -11 56 0 56 64 0 71 15 95 55 90 l30 -3 0 -70 c0 -65 2
-70 27 -84 42 -24 59 -2 57 70 -3 70 10 89 57 85 18 -1 35 -4 38 -7 2 -2 -1
-29 -7 -60 -12 -68 -6 -89 27 -89 30 0 47 27 35 55 -4 11 -8 37 -8 57 -1 20
-5 39 -10 42 -5 4 -8 21 -7 40 3 30 0 34 -23 34 -14 0 -27 5 -29 11 -3 9 -8 9
-19 0 -8 -7 -40 -14 -71 -15 -31 -2 -72 -5 -89 -7 -18 -2 -33 -1 -33 4 0 4
-25 5 -55 3 -30 -3 -55 -1 -55 4 0 10 -86 10 -96 -1 -10 -10 -44 -9 -44 2 0 4
8 19 18 32 30 39 34 67 8 71 -16 2 -22 11 -24 36 -2 18 2 40 8 48 14 15 6 49
-9 39 -5 -3 -12 -1 -16 5 -3 5 -14 10 -23 10 -9 1 -35 9 -57 20 -22 11 -49 19
-61 20 -11 0 -29 8 -38 19 -33 37 -149 38 -139 1 3 -11 -4 -24 -19 -34 -21
-15 -23 -15 -26 -1 -2 9 3 27 12 40 9 13 16 26 16 28 0 6 -35 4 -79 -4z m14
-38 c3 -5 1 -12 -5 -16 -5 -3 -10 1 -10 9 0 18 6 21 15 7z m175 -21 c0 -4 -8
-14 -18 -23 -14 -13 -21 -14 -30 -5 -8 8 -7 14 5 23 17 13 43 16 43 5z m94
-30 c-3 -3 -16 -5 -29 -5 -20 -1 -22 2 -14 17 8 15 13 16 29 6 10 -7 17 -15
14 -18z m-184 10 c0 -5 -5 -10 -11 -10 -5 0 -7 5 -4 10 3 6 8 10 11 10 2 0 4
-4 4 -10z m345 -355 c-17 -53 -15 -52 -26 -32 -8 13 -7 22 1 33 16 18 31 18
25 -1z"/>
<path d="M1813 1811 c-17 -5 -20 -10 -13 -21 8 -13 11 -13 27 2 20 21 16 27
-14 19z"/>
<path d="M2094 1806 c-10 -8 -16 -17 -13 -20 3 -3 14 3 24 14 21 23 17 26 -11
6z"/>
<path d="M2185 1783 c-26 -34 -27 -35 -4 -22 13 7 26 12 29 12 3 -1 4 3 3 7
-1 4 7 6 17 3 25 -7 26 8 2 24 -16 9 -23 6 -47 -24z"/>
<path d="M2804 1783 c-4 -21 -12 -44 -18 -52 -9 -12 -7 -13 9 -7 11 5 29 9 40
10 13 1 20 8 20 23 0 11 3 24 7 28 13 13 -4 35 -28 35 -19 0 -24 -7 -30 -37z"/>
<path d="M475 1784 c-13 -10 -15 -14 -4 -14 20 0 43 16 32 23 -4 3 -17 -1 -28
-9z"/>
<path d="M2091 1779 c-19 -10 -39 -23 -45 -30 -8 -9 -8 -10 3 -4 9 5 12 3 9
-6 -3 -8 -14 -13 -24 -12 -10 2 -47 4 -81 5 -35 1 -63 6 -63 11 0 5 -6 5 -12
-1 -17 -12 -78 -21 -78 -10 0 14 -43 9 -62 -9 -16 -15 -18 -15 -18 0 0 11 -5
14 -17 10 -11 -4 -14 -3 -9 5 9 15 -6 16 -21 1 -8 -8 -13 -8 -18 1 -5 8 -13 6
-27 -7 -21 -18 -21 -18 -8 6 l12 23 -31 -18 c-31 -18 -40 -34 -21 -34 6 0 10
-7 10 -15 0 -18 45 -49 59 -41 24 15 40 -6 39 -49 -3 -53 15 -77 51 -69 36 9
51 31 51 76 l0 38 43 -3 c59 -4 67 -11 61 -56 -2 -22 -1 -41 3 -44 4 -2 30 -1
58 2 l50 6 -3 35 c-2 20 3 44 12 55 13 17 18 18 35 8 13 -8 22 -9 26 -3 17 28
43 -21 39 -72 -2 -24 2 -29 29 -36 18 -5 43 -6 56 -2 24 6 28 16 33 78 2 30 5
32 39 32 33 0 38 -4 48 -32 9 -26 8 -35 -5 -50 -10 -10 -12 -18 -7 -18 18 0
22 -37 6 -59 -13 -19 -12 -20 4 -14 16 6 16 4 -2 -17 -14 -16 -16 -24 -7 -27
6 -3 10 -8 8 -12 -6 -8 -16 -81 -19 -138 -2 -24 -11 -52 -22 -65 -13 -14 -14
-18 -4 -10 15 11 16 8 13 -40 -3 -29 -6 -130 -7 -225 -2 -166 -3 -173 -26
-197 -30 -32 -51 -35 -25 -3 17 20 16 20 -9 -2 -26 -24 -36 -38 -18 -27 5 4
11 0 14 -6 3 -10 10 -8 26 6 13 12 21 14 21 7 0 -7 5 -9 10 -6 14 9 13 -8 -2
-23 -8 -8 -8 -15 1 -26 10 -11 6 -18 -20 -37 -29 -20 -32 -21 -26 -5 6 16 2
15 -25 -6 -17 -14 -34 -30 -36 -36 -5 -17 60 -6 74 13 6 8 15 15 20 15 4 0 3
-5 -4 -12 -7 -7 -12 -15 -12 -19 0 -4 87 -7 193 -7 105 1 296 0 422 0 127 -1
250 -1 275 -1 25 0 70 0 100 -1 47 0 74 2 113 9 4 0 7 6 7 12 0 6 -7 9 -15 5
-8 -3 -15 -1 -15 3 0 5 6 12 13 14 9 4 9 6 0 6 -6 1 -15 -3 -18 -9 -13 -21
-25 -9 -14 12 l12 23 -26 -23 c-16 -15 -27 -20 -32 -13 -3 6 -11 9 -16 6 -13
-9 -11 9 4 24 10 11 8 12 -8 7 -17 -5 -21 -2 -20 16 0 13 4 30 9 38 9 15 -9 1
-68 -50 -23 -20 -28 -21 -23 -7 6 17 4 16 -20 -2 -30 -24 -43 -20 -22 6 9 13
6 12 -11 -3 -14 -12 -31 -25 -39 -29 -24 -14 1 19 40 53 36 31 56 41 44 23 -8
-14 44 -6 58 9 10 10 9 12 -5 7 -10 -4 -18 -2 -18 4 0 6 -4 8 -9 5 -5 -4 -11
0 -14 6 -3 8 -30 -12 -71 -51 -36 -36 -68 -62 -72 -59 -3 4 8 19 25 34 31 27
36 49 6 24 -27 -22 -16 3 18 40 l32 35 -37 -34 c-21 -19 -40 -33 -42 -30 -10
10 -6 244 4 244 1 0 4 14 6 30 9 87 29 159 49 183 24 28 20 41 -18 55 -14 5
-17 15 -15 39 3 29 7 33 31 33 38 1 48 20 45 85 -3 70 3 80 47 73 20 -3 41 -1
49 6 15 12 19 61 5 61 -5 0 -5 8 -2 17 5 13 3 15 -12 9 -18 -6 -18 -6 -2 12
19 20 23 37 7 27 -5 -3 -10 -2 -10 4 0 5 -9 12 -20 16 -14 5 -32 -6 -67 -39
-52 -50 -51 -50 -73 -36 -12 8 -10 14 15 42 35 37 3 17 -37 -24 -14 -16 -32
-28 -39 -28 -7 0 -10 3 -6 6 8 8 -16 33 -25 27 -16 -9 -7 14 12 35 12 12 17
22 12 22 -14 0 -55 -48 -49 -57 3 -5 -3 -9 -14 -9 -10 0 -19 6 -19 13 0 7 -7
10 -17 6 -11 -4 -14 -3 -9 5 12 21 -1 13 -40 -23 -42 -38 -60 -44 -50 -19 5
12 2 15 -11 10 -10 -3 -1 10 19 29 45 41 72 47 37 8 -23 -26 -22 -26 9 2 32
29 32 30 11 37 -18 7 -29 1 -60 -33 -22 -23 -42 -39 -47 -35 -4 5 10 23 31 41
20 17 37 34 37 36 0 2 -11 5 -24 5 -15 1 -34 -8 -48 -23 l-23 -26 23 12 c27
15 29 0 2 -24 -11 -10 -20 -13 -20 -7 0 7 -5 12 -11 12 -6 0 -8 -7 -5 -16 3
-9 2 -12 -4 -9 -6 4 -21 -3 -35 -13 -15 -12 -34 -18 -45 -15 -23 6 -25 13 -7
33 6 8 -3 2 -20 -14 -28 -25 -36 -28 -56 -19 -15 7 -29 8 -40 1 -11 -6 -17 -5
-17 1 0 6 -7 8 -15 5 -21 -9 -19 10 5 31 11 10 20 26 20 37 0 10 9 26 20 35
27 23 25 28 -12 30 -40 3 -48 17 -36 60 5 19 8 36 6 38 -8 9 -78 16 -78 9 0
-5 -24 -8 -52 -7 -29 0 -68 2 -86 2 -22 1 -31 5 -26 13 8 13 -11 3 -40 -21
-11 -9 -16 -10 -12 -3 5 8 1 12 -12 12 -23 0 -25 28 -4 53 19 21 7 20 -37 -4z
m1039 -244 c-18 -19 -36 -32 -39 -29 -5 5 57 63 68 64 3 0 -10 -16 -29 -35z
m-577 -117 c2 -7 1 -38 -3 -68 -9 -65 1 -82 44 -78 33 3 33 4 37 98 2 42 18
68 30 48 6 -10 11 -10 20 -1 9 9 15 8 27 -4 13 -13 14 -20 4 -47 -8 -21 -9
-32 -2 -34 7 -3 7 -8 0 -18 -14 -16 -5 -33 24 -44 35 -13 58 6 56 48 -4 75 0
100 16 106 10 4 13 2 8 -6 -5 -8 -2 -9 10 -5 21 8 48 -15 47 -40 -2 -27 0 -94
3 -131 4 -43 -16 -71 -37 -54 -11 10 -17 9 -27 -3 -14 -17 -35 -21 -25 -5 3 6
-1 7 -9 4 -9 -4 -16 -1 -16 6 0 9 -6 8 -19 -4 -10 -9 -17 -25 -14 -34 6 -24
85 -23 111 1 10 9 21 17 23 17 8 0 4 -44 -5 -59 -12 -19 -14 -141 -2 -141 5 0
1 -9 -8 -19 -13 -14 -14 -20 -5 -23 8 -3 9 -9 4 -18 -11 -17 -13 -60 -3 -60
11 0 4 -42 -11 -69 -8 -14 -8 -21 -2 -17 22 14 10 -9 -21 -42 l-33 -33 26 6
c35 9 46 -10 22 -37 -16 -20 -17 -21 0 -15 23 9 22 -10 -2 -23 -26 -13 -34
-13 -25 3 6 9 4 9 -7 -1 -21 -19 -34 -14 -16 6 10 10 17 21 17 23 0 5 -89 -5
-120 -13 -8 -2 -25 -9 -37 -16 -28 -15 -36 -15 -27 0 4 7 -7 2 -24 -11 -19
-13 -32 -17 -32 -10 0 8 -11 10 -36 6 -28 -5 -35 -3 -30 8 3 10 0 12 -11 8
-11 -4 -14 -2 -9 5 4 7 3 12 -3 12 -5 0 -13 -4 -16 -10 -3 -5 -11 -10 -17 -10
-7 0 -7 4 0 12 8 10 2 13 -28 12 -36 0 -38 1 -36 28 2 21 -1 27 -12 23 -13 -5
-13 -3 -2 11 11 12 11 17 2 23 -7 4 -10 14 -7 23 10 25 11 168 2 168 -5 0 -5
10 -1 22 6 20 11 73 15 158 1 19 7 38 12 42 16 10 36 -2 30 -18 -8 -22 10 -16
29 11 27 36 6 74 -22 40 -19 -23 -36 -2 -35 42 1 53 10 63 48 56 24 -3 37 0
47 13 12 13 12 18 3 21 -15 5 -17 61 -3 97 8 21 16 26 44 26 18 0 36 -6 39
-12z m472 -37 c-10 -39 -23 -48 -40 -25 -19 25 -19 39 1 59 23 23 48 1 39 -34z
m175 -726 c-7 -8 -17 -15 -23 -15 -6 0 -2 7 9 15 25 19 30 19 14 0z"/>
<path d="M2477 1193 c-4 -3 -7 -16 -7 -28 0 -11 -6 -27 -12 -34 -11 -10 -9
-11 7 -5 16 6 18 5 8 -7 -18 -19 -16 -34 2 -19 9 7 13 20 10 27 -3 8 5 23 17
32 12 10 18 23 14 29 -8 13 -29 16 -39 5z"/>
<path d="M2541 1186 c-13 -15 -5 -46 11 -46 16 0 37 32 31 47 -7 17 -28 17
-42 -1z"/>
<path d="M2612 1180 c-26 -28 -28 -42 -6 -33 14 5 15 3 4 -18 l-12 -24 26 26
c22 20 25 30 18 49 l-9 23 -21 -23z"/>
<path d="M2673 1183 c4 -3 2 -12 -5 -20 -6 -8 -12 -27 -13 -44 l-2 -30 29 31
c34 38 37 70 6 70 -12 0 -18 -3 -15 -7z"/>
<path d="M2602 1087 c-25 -27 -30 -46 -6 -27 15 13 38 50 31 50 -2 0 -13 -10
-25 -23z"/>
<path d="M2530 1060 c0 -5 5 -10 10 -10 6 0 10 5 10 10 0 6 -4 10 -10 10 -5 0
-10 -4 -10 -10z"/>
<path d="M2599 894 c-23 -25 -23 -26 -2 -13 13 7 25 19 27 26 8 19 2 16 -25
-13z"/>
<path d="M2469 809 c-24 -24 -22 -30 7 -23 11 3 20 14 21 25 2 24 -2 24 -28
-2z"/>
<path d="M2690 801 c-14 -28 -12 -36 5 -21 13 11 14 10 9 -5 -5 -12 -4 -16 3
-12 6 4 13 18 15 32 6 30 -16 34 -32 6z"/>
<path d="M2775 725 c-16 -13 -27 -27 -24 -29 3 -3 18 8 34 24 35 36 31 38 -10
5z"/>
<path d="M2379 683 c-13 -15 -12 -15 9 -4 23 12 28 21 13 21 -5 0 -15 -7 -22
-17z"/>
<path d="M2518 675 c-3 -14 0 -25 6 -26 6 -1 23 -3 38 -4 15 -2 32 3 39 11 8
9 8 14 1 14 -6 0 -9 7 -6 15 5 12 -2 15 -34 15 -34 0 -40 -3 -44 -25z"/>
<path d="M3395 1790 c-3 -5 -2 -10 4 -10 5 0 13 5 16 10 3 6 2 10 -4 10 -5 0
-13 -4 -16 -10z"/>
<path d="M1685 1780 c-3 -5 -1 -10 4 -10 6 0 11 5 11 10 0 6 -2 10 -4 10 -3 0
-8 -4 -11 -10z"/>
<path d="M2285 1770 c-3 -5 -2 -10 4 -10 5 0 13 5 16 10 3 6 2 10 -4 10 -5 0
-13 -4 -16 -10z"/>
<path d="M3611 1738 c-14 -23 -14 -23 8 -4 22 20 25 26 13 26 -4 0 -13 -10
-21 -22z"/>
<path d="M3985 1690 c-3 -5 -1 -10 4 -10 6 0 11 5 11 10 0 6 -2 10 -4 10 -3 0
-8 -4 -11 -10z"/>
<path d="M2600 1618 l-25 -23 33 -5 33 -5 -21 -22 c-11 -13 -16 -23 -11 -23 6
0 14 6 18 14 4 7 19 19 32 26 15 7 21 8 17 1 -12 -18 10 -12 28 8 15 16 15 20
1 31 -8 7 -28 10 -45 8 -16 -2 -31 -1 -32 4 -2 5 -14 -1 -28 -14z"/>
<path d="M2525 1622 c-6 -4 -17 -16 -25 -26 -14 -18 -14 -19 7 -8 23 12 38 30
31 37 -2 2 -8 1 -13 -3z"/>
<path d="M1110 1600 c0 -5 3 -10 8 -11 46 -5 65 -2 75 11 10 13 10 13 -3 3
-10 -8 -21 -9 -30 -3 -20 13 -50 13 -50 0z"/>
<path d="M1207 1580 c-19 -22 -20 -23 -1 -7 25 21 38 22 30 2 -3 -8 -1 -15 5
-15 5 0 12 7 15 15 4 8 13 15 22 15 25 0 4 13 -23 15 -16 0 -34 -9 -48 -25z"/>
<path d="M1380 1600 c0 -5 5 -10 10 -10 6 0 10 5 10 10 0 6 -4 10 -10 10 -5 0
-10 -4 -10 -10z"/>
<path d="M1433 1603 c-13 -2 -23 -9 -23 -14 0 -6 5 -7 12 -3 8 5 9 2 5 -9 -3
-10 -2 -17 3 -17 14 0 41 31 35 41 -4 5 -7 8 -8 8 -1 -1 -12 -4 -24 -6z"/>
<path d="M2540 1600 c-8 -5 -11 -12 -7 -16 4 -4 13 -2 19 4 15 15 7 24 -12 12z"/>
<path d="M2905 1573 c-13 -13 -19 -13 -25 -4 -5 8 -10 9 -14 3 -12 -21 28 -23
48 -2 11 11 18 20 14 20 -4 0 -14 -7 -23 -17z"/>
<path d="M1546 1571 c-6 -10 24 -25 32 -16 3 3 0 5 -7 5 -7 0 -9 5 -6 10 3 6
2 10 -4 10 -5 0 -12 -4 -15 -9z"/>
<path d="M2964 1559 c-19 -22 -19 -22 3 -10 24 12 39 31 25 31 -5 0 -17 -10
-28 -21z"/>
<path d="M3001 1561 c-13 -10 -22 -23 -20 -30 3 -7 16 0 34 19 32 33 24 40
-14 11z"/>
<path d="M2539 1553 c-13 -16 -12 -17 4 -4 9 7 17 15 17 17 0 8 -8 3 -21 -13z"/>
<path d="M2546 1524 c-5 -14 -4 -15 9 -4 17 14 19 20 6 20 -5 0 -12 -7 -15
-16z"/>
<path d="M3047 1523 c-4 -3 -7 -11 -7 -17 0 -6 5 -5 12 2 6 6 9 14 7 17 -3 3
-9 2 -12 -2z"/>
<path d="M3915 1510 c-3 -5 -1 -10 4 -10 6 0 11 5 11 10 0 6 -2 10 -4 10 -3 0
-8 -4 -11 -10z"/>
<path d="M1928 1493 c-25 -2 -52 -11 -58 -19 -7 -7 -21 -14 -31 -14 -12 0 -19
-7 -19 -18 0 -10 -8 -28 -17 -41 -9 -14 -11 -21 -4 -16 10 6 11 3 2 -13 -13
-24 -14 -35 -3 -28 13 8 5 -53 -8 -69 -9 -10 -9 -15 -1 -15 6 0 10 -9 8 -19
-1 -11 1 -20 6 -20 4 -1 6 0 5 2 -1 1 5 13 12 27 7 14 12 49 11 80 -2 70 23
104 92 125 26 8 47 11 47 7 0 -4 10 -8 23 -8 12 -1 32 -5 45 -9 14 -5 22 -3
22 4 0 5 -6 8 -14 5 -9 -3 -17 3 -21 15 -3 12 -10 21 -15 21 -5 0 -14 1 -22 3
-7 2 -34 2 -60 0z"/>
<path d="M400 1445 c-8 -10 -10 -30 -6 -60 8 -51 28 -62 24 -13 -1 18 3 33 10
36 17 5 15 52 -2 52 -7 0 -19 -7 -26 -15z"/>
<path d="M601 1451 c-7 -4 -16 -24 -21 -44 l-8 -36 34 26 c19 14 34 29 34 33
0 15 -26 29 -39 21z"/>
<path d="M500 1435 c-6 -8 -9 -23 -5 -36 5 -14 2 -25 -6 -30 -8 -5 -9 -9 -3
-9 14 0 54 55 54 75 0 19 -24 20 -40 0z"/>
<path d="M675 1438 c-6 -16 -9 -47 -7 -70 2 -20 22 -25 22 -6 0 6 10 22 21 35
18 18 20 25 9 38 -15 18 -39 20 -45 3z"/>
<path d="M858 1431 c-17 -23 -17 -83 0 -88 7 -3 12 4 12 16 0 12 4 21 10 21
18 0 32 40 19 56 -15 19 -25 18 -41 -5z"/>
<path d="M2137 1433 c-9 -11 -17 -28 -17 -39 0 -11 -5 -25 -12 -32 -9 -9 -9
-12 -1 -12 9 0 9 -8 1 -31 -12 -36 -7 -44 20 -30 14 8 20 21 20 41 -1 21 6 36
20 46 27 18 27 25 4 54 -17 21 -18 21 -35 3z"/>
<path d="M3256 1431 c-17 -19 -29 -71 -17 -71 4 0 12 5 18 11 6 6 19 12 29 13
17 3 20 13 15 56 -2 16 -27 11 -45 -9z"/>
<path d="M3446 1426 c-29 -32 -30 -35 -17 -54 6 -11 14 -9 35 10 23 19 26 27
18 48 l-9 24 -27 -28z"/>
<path d="M765 1424 c-9 -9 -14 -23 -11 -31 3 -8 6 -22 6 -31 0 -10 10 -2 25
20 14 20 25 42 25 47 0 16 -27 13 -45 -5z"/>
<path d="M1627 1426 c-12 -13 -13 -66 -1 -66 13 0 45 44 42 57 -4 23 -23 27
-41 9z"/>
<path d="M2216 1399 c-35 -39 -43 -66 -13 -40 12 9 14 3 13 -38 -2 -37 1 -48
11 -44 16 6 17 23 1 23 -9 0 -9 3 0 12 7 7 12 19 12 28 1 8 11 28 24 44 20 24
22 31 11 43 -18 18 -17 18 -59 -28z"/>
<path d="M3531 1431 c-7 -5 -15 -25 -17 -45 l-4 -36 36 21 c26 14 39 17 44 9
7 -12 56 -4 66 11 7 13 -14 49 -30 49 -7 0 -21 -9 -32 -21 l-18 -20 -8 20 c-8
23 -16 25 -37 12z"/>
<path d="M1730 1415 c-6 -8 -10 -20 -7 -27 2 -7 0 -21 -5 -30 -13 -27 -2 -22
31 13 29 30 32 59 6 59 -7 0 -18 -7 -25 -15z"/>
<path d="M3362 1416 c-13 -15 -21 -66 -11 -66 10 0 37 27 49 50 7 14 5 19 -10
23 -11 3 -23 0 -28 -7z"/>
<path d="M3692 1410 c-6 -11 -12 -32 -12 -47 l0 -28 31 32 c20 20 30 37 26 47
-9 22 -30 20 -45 -4z"/>
<path d="M3202 1378 c-7 -7 -12 -19 -12 -28 0 -9 -6 -25 -14 -35 -12 -17 -12
-22 7 -37 24 -21 42 -19 42 5 0 8 10 26 21 39 35 38 40 54 10 31 -22 -18 -30
-20 -41 -10 -9 8 -10 16 -3 25 14 16 5 25 -10 10z"/>
<path d="M1912 1356 c-3 -6 -7 -25 -8 -42 0 -17 -4 -36 -8 -42 -4 -7 8 -15 31
-21 30 -9 40 -8 55 6 10 9 17 24 16 32 -1 9 1 21 5 28 9 14 -1 43 -17 44 -44
5 -68 4 -74 -5z"/>
<path d="M580 1345 c0 -8 2 -15 4 -15 2 0 6 7 10 15 3 8 1 15 -4 15 -6 0 -10
-7 -10 -15z"/>
<path d="M495 1340 c-3 -5 -1 -10 4 -10 6 0 11 5 11 10 0 6 -2 10 -4 10 -3 0
-8 -4 -11 -10z"/>
<path d="M3347 1333 c-4 -3 -7 -11 -7 -17 0 -6 5 -5 12 2 6 6 9 14 7 17 -3 3
-9 2 -12 -2z"/>
<path d="M1715 1320 c-3 -5 -1 -10 4 -10 6 0 11 5 11 10 0 6 -2 10 -4 10 -3 0
-8 -4 -11 -10z"/>
<path d="M3415 1320 c-3 -5 -1 -10 4 -10 6 0 11 5 11 10 0 6 -2 10 -4 10 -3 0
-8 -4 -11 -10z"/>
<path d="M1625 1303 c-5 -10 -7 -22 -6 -28 2 -5 3 -20 3 -31 0 -16 5 -20 19
-17 22 6 25 19 7 26 -10 3 -10 7 -1 18 9 11 8 18 -2 32 -12 17 -13 17 -20 0z"/>
<path d="M3250 1309 c0 -5 5 -7 10 -4 6 3 10 8 10 11 0 2 -4 4 -10 4 -5 0 -10
-5 -10 -11z"/>
<path d="M489 1293 c-13 -16 -12 -17 4 -4 9 7 17 15 17 17 0 8 -8 3 -21 -13z"/>
<path d="M750 1290 c-6 -12 -7 -20 -1 -20 5 0 12 -8 14 -17 3 -10 5 -1 6 20 1
42 -3 46 -19 17z"/>
<path d="M1709 1274 c-23 -25 -23 -26 -2 -15 23 12 38 29 31 37 -3 2 -15 -8
-29 -22z"/>
<path d="M580 1280 c0 -5 5 -10 10 -10 6 0 10 5 10 10 0 6 -4 10 -10 10 -5 0
-10 -4 -10 -10z"/>
<path d="M495 1270 c-3 -5 -1 -10 4 -10 6 0 11 5 11 10 0 6 -2 10 -4 10 -3 0
-8 -4 -11 -10z"/>
<path d="M2129 1278 c-1 -2 -2 -15 -3 -30 -2 -22 1 -25 12 -15 10 8 11 12 3
15 -9 3 -9 7 0 18 8 10 8 14 0 14 -6 0 -12 -1 -12 -2z"/>
<path d="M2216 1244 c-5 -14 -4 -15 9 -4 17 14 19 20 6 20 -5 0 -12 -7 -15
-16z"/>
<path d="M3256 1233 c-6 -14 -5 -15 5 -6 7 7 10 15 7 18 -3 3 -9 -2 -12 -12z"/>
<path d="M1945 1209 c-11 -17 1 -21 15 -4 8 9 8 15 2 15 -6 0 -14 -5 -17 -11z"/>
<path d="M1093 1198 c-4 -7 -9 -24 -11 -38 l-3 -25 25 24 c20 19 23 27 15 38
-14 16 -16 16 -26 1z"/>
<path d="M1150 1185 c-7 -8 -10 -22 -6 -30 4 -12 10 -13 30 -3 19 8 29 8 39 0
20 -17 57 11 39 30 -10 10 -17 10 -31 1 -15 -10 -22 -9 -31 2 -16 19 -24 19
-40 0z"/>
<path d="M1415 1180 c-17 -18 -19 -18 -30 -3 -21 28 -43 9 -42 -36 0 -22 4
-38 8 -35 5 3 6 11 3 18 -7 17 20 38 39 30 12 -4 15 -14 10 -35 -4 -19 -1 -29
7 -29 7 0 10 7 6 16 -4 9 5 25 22 41 l27 25 9 -30 8 -30 24 26 c17 19 26 24
32 15 7 -12 52 -7 52 5 0 3 -7 14 -17 24 -15 17 -17 17 -35 2 -12 -12 -18 -13
-18 -4 0 8 -8 10 -25 6 -14 -4 -34 -2 -44 3 -14 8 -23 6 -36 -9z"/>
<path d="M3175 1190 c-4 -6 -21 -8 -38 -5 -27 5 -34 2 -44 -20 -9 -21 -9 -25
4 -25 14 0 13 -3 -2 -20 -31 -35 -9 -33 24 2 26 28 33 31 41 18 5 -8 8 -21 5
-27 -8 -23 13 -13 33 15 14 19 17 33 11 50 -9 23 -24 29 -34 12z"/>
<path d="M1272 1165 c-9 -20 -9 -25 2 -25 13 0 46 31 46 43 0 18 -38 4 -48
-18z"/>
<path d="M1140 1095 c-7 -8 -25 -15 -41 -15 -35 0 -41 -11 -43 -71 -2 -42 1
-49 17 -49 42 0 58 19 56 65 -2 31 3 50 16 65 10 11 16 20 13 20 -3 0 -11 -7
-18 -15z"/>
<path d="M1867 1092 c-19 -4 -20 -16 -7 -47 9 -19 9 -19 16 3 3 12 9 22 13 22
4 0 15 6 24 13 16 11 15 12 -6 12 -13 0 -31 -1 -40 -3z"/>
<path d="M2001 1090 c-19 -5 -40 -6 -46 -3 -13 4 -55 -46 -55 -66 0 -6 18 -11
40 -11 38 0 40 2 40 30 0 26 4 30 26 30 21 0 25 -4 20 -17 -5 -15 -4 -15 9 1
16 21 20 47 8 45 -5 -1 -23 -5 -42 -9z"/>
<path d="M3449 1043 c-13 -16 -12 -17 4 -4 16 13 21 21 13 21 -2 0 -10 -8 -17
-17z"/>
<path d="M1901 967 c-6 -6 -6 -19 0 -34 5 -14 6 -29 3 -35 -4 -6 -8 -20 -9
-32 -4 -35 -4 -36 -19 -36 -8 0 -18 9 -21 20 -12 39 -43 -10 -51 -80 -6 -51
-11 -60 -33 -60 -14 0 -18 -6 -17 -24 0 -13 4 -22 7 -20 15 9 18 -42 4 -56
-11 -11 -15 -11 -15 -1 0 8 -7 10 -21 6 -14 -5 -19 -4 -15 4 5 7 1 9 -8 5 -9
-3 -16 -1 -16 5 0 7 -9 5 -25 -5 -33 -21 -32 -8 2 30 l28 31 -35 -31 c-56 -48
-77 -61 -46 -26 35 37 27 41 -17 10 l-32 -23 23 30 c15 18 19 31 12 33 -6 2
-18 -4 -25 -14 -10 -14 -14 -15 -15 -5 0 11 -4 11 -18 -2 -23 -21 -39 -22 -22
-2 11 13 8 14 -21 9 -36 -7 -62 -30 -52 -47 3 -6 1 -7 -6 -3 -6 4 -20 2 -29
-6 -16 -12 -16 -11 -2 7 8 11 25 30 37 42 25 24 30 43 12 43 -8 0 -7 6 2 18
11 14 10 13 -9 -2 -12 -11 -22 -27 -22 -36 0 -29 -36 -53 -84 -54 -29 -1 -42
2 -36 9 15 14 12 25 -5 19 -9 -4 -15 -1 -15 7 0 7 -10 3 -25 -11 -37 -35 -30
-16 11 30 20 22 32 40 26 40 -6 0 -30 -22 -55 -50 -25 -27 -50 -50 -57 -50 -6
0 -8 5 -5 10 3 6 2 10 -4 10 -5 0 -13 -5 -16 -10 -3 -5 -17 -10 -31 -10 -13 0
-24 -5 -24 -11 0 -5 4 -8 9 -4 5 3 12 1 15 -3 7 -11 56 -4 74 11 8 6 12 6 12
-1 0 -6 8 -11 18 -11 9 0 87 -3 172 -5 85 -3 159 -6 164 -6 5 0 1 -9 -9 -20
-16 -17 -32 -80 -20 -80 10 0 45 45 45 59 1 17 33 61 45 61 4 0 4 -7 1 -15 -4
-12 -2 -14 11 -6 10 5 26 5 40 0 13 -5 30 -6 38 -3 8 4 15 1 15 -6 0 -6 5 -8
13 -3 6 4 19 6 28 5 23 -4 37 17 43 67 2 23 12 51 20 60 9 10 16 25 16 34 0
12 9 17 31 17 51 0 98 34 99 73 0 22 -8 22 -32 0 -16 -15 -21 -15 -28 -3 -10
17 -3 33 11 24 21 -12 46 26 47 70 l1 44 -40 4 c-22 2 -44 -1 -48 -5z m-616
-336 c-3 -6 -11 -11 -17 -11 -6 0 -6 6 2 15 14 17 26 13 15 -4z m195 9 c0 -5
-5 -10 -11 -10 -5 0 -7 5 -4 10 3 6 8 10 11 10 2 0 4 -4 4 -10z"/>
<path d="M507 853 c-7 -6 4 -43 12 -42 16 1 45 18 33 18 -7 1 -11 5 -8 10 6 9
-29 22 -37 14z"/>
<path d="M732 852 c-13 -9 -7 -42 8 -42 13 0 32 29 25 40 -7 12 -16 13 -33 2z"/>
<path d="M2038 842 c-8 -9 -21 -39 -28 -65 -7 -26 -22 -59 -32 -72 -11 -14
-15 -25 -9 -25 17 0 18 -34 2 -53 -26 -31 11 -52 94 -55 71 -3 93 7 117 53 11
19 10 19 -9 3 -25 -23 -51 -25 -33 -3 9 11 9 15 1 15 -7 0 -9 5 -6 11 4 5 -1
18 -12 27 -27 26 -25 97 5 117 26 19 29 33 5 31 -10 0 -20 -10 -23 -20 -8 -29
-30 -32 -30 -4 0 13 -7 31 -14 40 -12 17 -14 17 -28 0z"/>
<path d="M1725 830 c-3 -4 -2 -15 1 -23 7 -18 34 -11 34 8 0 16 -27 28 -35 15z"/>
<path d="M1309 803 c-13 -15 -12 -15 9 -4 23 12 28 21 13 21 -5 0 -15 -7 -22
-17z"/>
<path d="M3246 803 c-6 -14 -5 -15 5 -6 7 7 10 15 7 18 -3 3 -9 -2 -12 -12z"/>
<path d="M3350 795 c-8 -10 -9 -15 -2 -15 7 0 9 -8 5 -17 -5 -14 0 -12 21 6
19 18 23 27 14 33 -18 11 -24 10 -38 -7z"/>
<path d="M3571 786 c-9 -10 -8 -15 2 -19 19 -7 41 8 33 22 -10 15 -21 14 -35
-3z"/>
<path d="M1200 775 c-11 -13 -10 -14 4 -9 9 3 16 10 16 15 0 13 -6 11 -20 -6z"/>
<path d="M1379 764 c-23 -25 -23 -26 -2 -15 23 12 38 29 31 37 -3 2 -15 -8
-29 -22z"/>
<path d="M1439 744 c-23 -25 -23 -26 -2 -15 23 12 38 29 31 37 -3 2 -15 -8
-29 -22z"/>
<path d="M1500 730 c-8 -5 -12 -12 -9 -15 4 -3 12 1 19 10 14 17 11 19 -10 5z"/>
<path d="M3319 723 c-13 -16 -12 -17 4 -4 16 13 21 21 13 21 -2 0 -10 -8 -17
-17z"/>
<path d="M3350 719 c0 -5 5 -7 10 -4 6 3 10 8 10 11 0 2 -4 4 -10 4 -5 0 -10
-5 -10 -11z"/>
<path d="M587 713 c-4 -3 -7 -17 -7 -30 0 -19 5 -23 33 -23 33 0 64 30 52 50
-7 11 -68 14 -78 3z"/>
<path d="M3445 658 c-22 -24 -33 -37 -25 -30 34 29 31 8 -5 -28 l-39 -40 34 0
c52 0 74 9 90 33 12 20 12 21 -3 9 -9 -8 -21 -11 -27 -7 -6 4 -17 1 -25 -5 -9
-7 -15 -8 -15 -2 0 15 22 29 57 36 42 10 60 31 43 51 -7 9 -19 14 -26 11 -7
-3 -14 0 -16 5 -2 5 -21 -10 -43 -33z"/>
<path d="M1175 680 c-8 -13 5 -13 25 0 13 8 13 10 -2 10 -9 0 -20 -4 -23 -10z"/>
<path d="M3385 680 c-3 -5 -1 -10 4 -10 6 0 11 5 11 10 0 6 -2 10 -4 10 -3 0
-8 -4 -11 -10z"/>
<path d="M393 667 c-4 -6 -8 -21 -9 -34 -3 -22 0 -23 82 -23 57 0 84 4 84 12
0 6 -3 8 -6 5 -4 -4 -15 3 -25 14 -10 12 -22 18 -27 15 -6 -3 -28 1 -51 9 -30
10 -42 11 -48 2z"/>
<path d="M3376 638 c-9 -12 -14 -24 -11 -26 6 -7 24 8 35 29 15 27 -5 25 -24
-3z"/>
<path d="M660 625 c-8 -9 -8 -15 -2 -15 12 0 26 19 19 26 -2 2 -10 -2 -17 -11z"/>
<path d="M575 620 c-4 -6 6 -10 22 -10 22 0 25 2 13 10 -19 12 -27 12 -35 0z"/>
<path d="M1335 450 c-3 -6 -2 -10 4 -10 6 0 8 -7 5 -15 -4 -8 -2 -15 4 -15 5
0 12 6 15 13 6 16 -20 41 -28 27z"/>
<path d="M210 15 c-25 -14 -25 -14 13 -15 26 0 37 4 35 12 -6 18 -20 19 -48 3z"/>
<path d="M390 15 l-25 -14 38 -1 c26 0 37 4 37 15 0 19 -17 19 -50 0z"/>
</g>
</svg>
