<svg version="1.1" id="Layer_1" xmlns="http://www.w3.org/2000/svg" xmlns:xlink="http://www.w3.org/1999/xlink" x="0px" y="0px"
	 width="100%" viewBox="0 0 816 208" enable-background="new 0 0 816 208" xml:space="preserve">
<path fill="#000000" opacity="1.000000" stroke="none" 
	d="
M136.478485,176.584747 
	C139.208084,171.935394 139.058533,167.224579 139.453735,162.402847 
	C140.120743,154.265213 138.982025,146.230637 139.170319,138.130478 
	C139.374023,129.366760 138.067276,120.509789 139.076843,111.773186 
	C139.704300,106.343094 137.937225,101.377480 137.685852,96.155991 
	C137.488403,92.054604 139.400864,89.897766 142.689774,88.481735 
	C147.334930,86.481781 150.045502,88.299324 149.467987,93.295349 
	C148.297150,103.424362 149.658142,113.598061 148.790405,123.661331 
	C148.446030,127.654793 148.699127,131.301926 149.128555,135.175934 
	C149.551575,138.992340 151.245834,139.019638 154.138168,138.266373 
	C161.003250,136.478500 167.977600,136.534073 174.726990,138.482513 
	C182.707138,140.786270 187.634949,146.365173 189.580551,154.469406 
	C189.804855,155.403732 189.948685,156.503891 189.677826,157.388824 
	C184.656174,173.794800 170.229050,187.805435 151.022003,181.480576 
	C147.327148,180.263855 143.554001,179.855179 139.686737,180.393677 
	C137.017548,180.765335 135.250168,180.221100 136.478485,176.584747 
M163.696930,176.005035 
	C171.288162,175.341843 175.730240,171.419601 178.201691,163.197693 
	C179.870880,157.644714 177.737183,152.494888 172.706802,147.914520 
	C168.039429,143.664642 162.259415,143.748886 156.800461,143.582687 
	C151.386765,143.417877 148.081177,148.209839 148.383896,153.704483 
	C148.592438,157.490173 148.448929,161.293945 148.587585,165.085083 
	C148.944382,174.840744 151.303452,176.872849 161.396240,176.254761 
	C161.891449,176.224411 162.382324,176.123352 163.696930,176.005035 
z"/>
<path fill="#000000" opacity="1.000000" stroke="none" 
	d="
M506.233826,61.411896 
	C510.942078,56.687431 516.125610,53.690128 522.425903,52.506630 
	C524.335022,52.148010 528.225098,52.880978 527.424744,49.364826 
	C526.691650,46.144543 523.214417,45.100285 520.098572,45.890388 
	C517.748535,46.486279 515.692383,48.173054 513.434448,49.221489 
	C511.691803,50.030689 509.694244,50.415028 508.580566,48.377743 
	C507.479065,46.362728 508.835144,44.739105 510.440369,43.789150 
	C513.284912,42.105755 516.311584,40.730244 519.221008,39.246845 
	C519.583313,36.214394 517.636292,34.528210 516.048462,32.630318 
	C515.114868,31.514360 513.794006,30.348003 514.825439,28.681908 
	C516.151672,26.539577 518.369629,26.533581 520.586548,26.487213 
	C522.304260,26.451290 523.739014,26.921238 523.923828,28.717445 
	C524.293213,32.306725 527.546753,35.383217 525.396118,38.975597 
	C527.322266,41.304630 530.006958,41.041676 531.854980,42.490818 
	C535.772400,45.562740 537.105103,49.759449 536.619202,54.382259 
	C536.197021,58.399155 536.288330,62.353317 536.646423,66.321022 
	C537.020630,70.468063 534.472290,72.734528 531.139465,72.353043 
	C526.471558,71.818748 522.253662,73.349747 517.818115,73.709099 
	C512.784912,74.116882 508.172363,73.666573 504.909729,68.759026 
	C501.363495,70.211029 497.954132,71.896767 494.367218,73.010994 
	C488.257935,74.908791 485.208588,72.700523 484.900208,66.225731 
	C484.726471,62.578423 484.894348,58.893757 485.210327,55.252125 
	C485.400085,53.065643 485.443451,50.981384 484.823486,49.024536 
	C483.447784,47.543781 480.606812,49.447769 480.100800,46.913017 
	C479.631195,44.560692 481.547974,43.344872 483.258087,42.299809 
	C485.234680,41.091915 485.948395,39.548553 485.356659,37.260086 
	C484.738525,34.869690 485.160339,32.610790 486.903137,30.745916 
	C488.225098,29.331367 489.846558,28.517229 491.819794,28.910765 
	C494.274323,29.400290 493.076874,31.528301 493.612701,32.906658 
	C494.781342,35.912964 491.468262,39.475876 494.529114,41.926872 
	C497.414276,44.237255 500.103394,40.623497 503.038666,40.947033 
	C503.836578,41.034985 504.627899,41.182877 505.923645,41.379238 
	C505.234131,46.172295 502.870514,48.878685 498.218842,48.916080 
	C493.317871,48.955482 491.662750,50.992039 492.626038,55.798046 
	C493.070404,58.015121 492.476837,60.419487 492.627594,62.721012 
	C492.854431,66.185196 495.323883,67.531013 497.936310,65.321793 
	C500.371521,63.262459 503.575256,63.453247 506.233826,61.411896 
M522.017029,67.593842 
	C523.309692,67.283005 524.650513,67.099960 525.884705,66.634148 
	C528.286316,65.727699 528.991150,63.760002 528.639160,61.393158 
	C528.118042,57.889225 525.333313,58.163620 522.861572,58.180943 
	C518.092163,58.214371 513.042114,61.075741 513.429077,63.863041 
	C514.069702,68.477142 518.111389,67.403610 522.017029,67.593842 
z"/>
<path fill="#000000" opacity="1.000000" stroke="none" 
	d="
M763.573853,135.273239 
	C770.970886,134.308960 776.759216,137.169846 781.464111,141.812073 
	C784.660278,144.965576 784.670044,149.953857 784.546448,154.007141 
	C784.332397,161.021927 785.240723,167.909653 785.518372,174.854813 
	C785.705872,179.544601 778.809326,185.159744 775.048462,182.590012 
	C771.763550,180.345535 769.136902,181.392853 766.207153,182.026871 
	C760.521667,183.257248 754.943542,184.825348 748.976807,183.724701 
	C743.581604,182.729523 739.137756,179.850967 737.926025,174.893494 
	C736.720276,169.960663 739.855713,165.540695 744.212524,162.774597 
	C751.252930,158.304703 758.628418,154.462448 767.177551,153.923019 
	C770.293152,153.726410 773.967834,153.917725 773.561157,149.715805 
	C773.234863,146.344345 771.050049,143.116974 767.189148,142.465134 
	C762.120605,141.609406 757.242981,142.279465 753.051270,145.713226 
	C752.037842,146.543411 750.883545,147.495300 749.668335,147.724411 
	C747.155396,148.198181 744.271790,147.883987 743.064148,145.509369 
	C741.520081,142.473022 744.611450,141.440689 746.575378,140.587555 
	C751.904419,138.272583 757.487976,136.650864 763.573853,135.273239 
M749.387207,167.687378 
	C747.785461,170.688431 748.988464,173.445114 751.096985,175.219864 
	C756.404541,179.687180 769.172485,177.537170 773.352844,171.809891 
	C776.602417,167.357849 774.305908,161.813950 768.910889,160.945435 
	C761.464417,159.746674 755.292053,162.351044 749.387207,167.687378 
z"/>
<path fill="#000000" opacity="1.000000" stroke="none" 
	d="
M585.405640,165.232178 
	C585.665833,168.450516 585.965332,171.254044 586.146912,174.065201 
	C586.536072,180.089828 583.674805,183.448227 577.805237,183.949966 
	C577.475281,183.978165 576.983032,184.163406 576.839050,184.013550 
	C572.108154,179.090469 567.212524,182.972412 562.608459,184.038116 
	C556.845703,185.372025 551.429077,184.590393 545.986633,183.053879 
	C539.239868,181.149124 536.548401,172.831573 541.295715,167.372604 
	C548.383423,159.222519 558.091187,156.005142 568.443481,154.343292 
	C570.799133,153.965134 574.517822,155.471024 574.617737,151.293396 
	C574.715454,147.205780 572.078430,144.312546 568.250610,143.445862 
	C563.265991,142.317276 558.293213,142.671356 554.235779,146.531067 
	C553.399719,147.326385 552.522400,148.246445 551.486511,148.632050 
	C548.455505,149.760376 545.501343,148.801453 544.118652,146.186737 
	C542.711487,143.525635 545.275635,141.891739 547.442078,141.039490 
	C555.600464,137.830063 563.882141,134.548630 572.848633,137.129303 
	C581.823547,139.712387 584.556946,143.837112 585.258362,154.848083 
	C585.469421,158.161713 585.356201,161.495987 585.405640,165.232178 
M575.661438,167.499924 
	C575.241272,165.322891 575.893005,162.657089 573.038757,161.574173 
	C567.379333,159.426926 554.790405,162.935822 550.897705,167.727875 
	C548.460144,170.728577 549.389954,174.568878 552.825195,176.416962 
	C558.426086,179.430023 563.682556,177.385788 569.135742,175.821243 
	C573.179016,174.661255 575.610107,172.647797 575.661438,167.499924 
z"/>
<path fill="#000000" opacity="1.000000" stroke="none" 
	d="
M415.159973,138.479797 
	C408.349091,138.026596 409.782318,143.143967 409.510162,146.440094 
	C408.802338,155.012222 409.692230,163.572861 410.494141,172.121628 
	C410.904816,176.500000 409.644196,179.927032 404.826141,181.346573 
	C400.566742,182.601532 398.969055,181.408661 399.273865,176.922897 
	C399.790558,169.318176 401.092438,161.783081 400.519989,154.081421 
	C399.844086,144.987503 399.237793,135.869202 399.605133,126.731514 
	C399.715607,123.984390 395.636078,121.174423 399.263184,118.602898 
	C403.127808,115.862976 407.941315,116.203461 412.301453,116.528755 
	C418.594269,116.998245 424.855255,117.747421 431.189117,117.874664 
	C435.097198,117.953178 438.687195,116.423927 442.521484,116.330322 
	C443.889282,116.296936 445.328979,116.024498 445.936340,117.590668 
	C446.474121,118.977501 445.771545,120.204605 444.799896,121.197083 
	C440.883575,125.197128 435.626556,124.822655 430.762787,125.010277 
	C425.304535,125.220825 419.860565,124.004395 414.340118,124.111046 
	C411.248993,124.170761 409.539581,125.182693 409.408966,128.288895 
	C409.267090,131.662949 411.722473,132.064621 414.155640,131.899155 
	C425.577881,131.122375 437.107574,133.129059 448.459625,130.554398 
	C449.935089,130.219772 451.536255,130.011963 452.442810,131.674545 
	C453.329041,133.299789 452.196686,134.492020 451.384766,135.745377 
	C449.433746,138.757095 446.320068,138.804626 443.362030,138.574051 
	C434.088074,137.851196 424.824829,137.826721 415.159973,138.479797 
z"/>
<path fill="#000000" opacity="1.000000" stroke="none" 
	d="
M449.710480,145.840790 
	C449.665924,143.874222 450.213440,142.197144 451.627167,141.681961 
	C459.341003,138.870819 466.845459,134.850922 475.535339,136.713150 
	C485.499878,138.848511 492.453125,147.696793 490.964569,157.717010 
	C490.054260,163.844513 491.588898,169.575760 491.986328,175.467804 
	C492.190887,178.500000 491.350800,180.441452 488.948883,181.590408 
	C486.321259,182.847321 483.832123,185.831573 480.427185,182.875793 
	C477.506256,180.340164 474.412842,182.281052 471.522766,183.015350 
	C466.665527,184.249466 461.922913,185.241959 456.808105,184.455811 
	C450.949158,183.555298 446.376190,180.788147 445.093964,175.134613 
	C443.781281,169.346817 447.926239,165.262024 452.407318,162.567764 
	C458.911591,158.657135 465.612030,154.940796 473.592651,154.556717 
	C476.333466,154.424820 480.704590,154.801468 480.317657,150.574432 
	C479.988037,146.972855 477.252777,143.937485 473.100647,143.328720 
	C467.954285,142.574219 463.257690,143.411545 459.163940,147.053787 
	C455.919281,149.940598 452.586731,149.852554 449.710480,145.840790 
M480.989532,167.812042 
	C480.226044,165.807220 481.906586,162.452805 478.648163,161.897385 
	C470.823700,160.563644 463.345551,161.718811 457.178802,167.140869 
	C453.879944,170.041351 455.191956,175.016891 459.145813,176.867157 
	C462.867065,178.608597 466.798859,178.788773 470.293976,177.408203 
	C474.692902,175.670593 481.126678,175.806274 480.989532,167.812042 
z"/>
<path fill="#000000" opacity="1.000000" stroke="none" 
	d="
M69.980423,129.789917 
	C74.465904,129.720367 78.456612,129.710571 82.442291,129.564056 
	C84.899155,129.473740 88.269203,128.604599 88.625824,131.812149 
	C89.021019,135.366592 85.800308,136.963043 82.576637,136.964142 
	C78.602837,136.965515 74.622910,136.435257 70.656219,136.030807 
	C63.528160,135.304001 56.439472,136.546799 49.321449,136.380905 
	C46.937256,136.325348 46.333416,138.071472 46.277184,140.110260 
	C46.017189,149.537277 45.359833,158.961716 46.936043,168.359879 
	C48.070465,175.123886 46.118923,178.337494 40.739845,179.319504 
	C37.304947,179.946579 35.465088,178.733215 35.969330,175.107056 
	C38.288681,158.427856 36.056999,141.770554 35.799511,125.104767 
	C35.786827,124.283936 35.635357,123.445450 35.418289,122.650749 
	C33.861774,116.952087 34.972385,115.157997 40.882759,114.881920 
	C45.021889,114.688583 49.285233,114.529938 53.319801,115.283577 
	C61.084511,116.733994 68.753761,116.512352 76.500954,115.555305 
	C78.443436,115.315331 81.361244,113.857239 81.861748,117.064857 
	C82.297897,119.860054 79.935638,121.600533 77.324333,122.132370 
	C72.599686,123.094650 67.828484,123.842247 62.974113,122.847206 
	C58.872025,122.006371 54.706917,122.105232 50.544083,122.161201 
	C48.190895,122.192841 46.070835,122.377487 46.209869,125.516373 
	C46.345066,128.568558 47.945724,129.971527 51.027088,129.921616 
	C57.178314,129.821991 63.331272,129.828979 69.980423,129.789917 
z"/>
<path fill="#000000" opacity="1.000000" stroke="none" 
	d="
M100.539413,142.284592 
	C98.366447,143.608459 96.583908,144.827927 94.738312,145.943008 
	C92.150894,147.506287 89.562813,147.225616 87.320145,145.353607 
	C85.411293,143.760254 85.291710,141.243744 87.522629,140.417252 
	C96.777824,136.988541 106.020470,132.593582 116.286369,136.733658 
	C124.637558,140.101562 128.726608,145.748291 127.727303,154.656036 
	C126.988297,161.243515 128.473862,167.539032 128.693573,173.976273 
	C128.864029,178.970062 123.466400,183.728104 119.012390,181.456558 
	C115.680519,179.757263 112.637817,180.055099 109.437241,181.036224 
	C103.955246,182.716705 98.421867,183.283615 92.756500,182.247635 
	C87.231773,181.237350 82.007133,177.183334 81.616264,172.898499 
	C81.121780,167.477875 84.449753,163.675491 88.611549,161.056290 
	C95.250755,156.877945 102.391914,153.779892 110.476799,153.459244 
	C112.572319,153.376144 114.814285,153.357910 116.697510,152.156769 
	C117.845551,143.675034 110.831520,139.259262 100.539413,142.284592 
M103.158722,160.593658 
	C101.596413,161.164795 99.960327,161.590240 98.486748,162.336563 
	C95.146912,164.028076 91.747025,166.036102 92.628906,170.499908 
	C93.484215,174.829178 96.759682,176.555756 101.030113,176.858109 
	C106.286621,177.230286 110.661720,174.460907 115.163269,172.656967 
	C119.000595,171.119202 118.048538,166.775620 117.853523,163.289139 
	C117.756500,161.554520 117.034210,160.457291 115.195137,160.304443 
	C111.434479,159.991913 107.670609,158.575745 103.158722,160.593658 
z"/>
<path fill="#000000" opacity="1.000000" stroke="none" 
	d="
M317.783569,176.130890 
	C311.339172,166.801361 311.655396,158.362915 318.596283,149.201630 
	C326.257233,139.089966 341.770538,134.068222 353.958191,137.547623 
	C360.653870,139.459137 366.349213,144.305359 367.899872,149.807556 
	C369.746399,156.359589 369.372223,164.266510 365.475494,171.097183 
	C361.108765,178.751755 354.306305,182.187592 345.979126,183.246078 
	C339.414307,184.080582 332.865906,185.501221 326.348114,182.493759 
	C323.093597,180.992065 320.207062,179.236954 317.783569,176.130890 
M331.727753,174.859131 
	C342.540222,180.395294 354.762238,178.592758 358.051727,166.439026 
	C359.805115,159.960861 359.229218,153.679672 354.554321,148.214798 
	C350.028442,142.924072 344.574036,141.648300 337.995789,143.401199 
	C334.062836,144.449219 331.356384,147.193604 328.563843,149.699738 
	C321.310822,156.208969 322.716583,169.205261 331.727753,174.859131 
z"/>
<path fill="#000000" opacity="1.000000" stroke="none" 
	d="
M647.136230,142.001816 
	C651.017090,139.616867 654.760559,137.795349 658.892883,136.971176 
	C668.359558,135.083115 677.617249,140.585495 680.880188,149.693253 
	C682.041260,152.934128 680.842957,154.464401 677.942383,155.214478 
	C674.523804,156.098480 670.894470,156.542603 667.532410,155.878815 
	C660.658752,154.521729 653.935547,155.643814 647.162415,156.168610 
	C643.126160,156.481369 641.997192,158.437454 643.622498,162.190475 
	C645.532043,166.599838 647.298889,171.015091 651.721680,173.839462 
	C659.023438,178.502396 669.584534,177.640472 675.466980,171.411926 
	C677.477295,169.283401 679.672668,167.466522 682.243286,169.837921 
	C684.937195,172.323044 682.199280,174.511429 680.761780,176.249008 
	C676.872437,180.950348 671.160583,182.055710 665.555847,182.821793 
	C657.058105,183.983276 648.435303,184.267197 641.124695,178.817978 
	C630.829895,171.144485 630.135681,159.337967 639.152222,149.309967 
	C641.473816,146.727936 644.260071,144.563660 647.136230,142.001816 
M651.507324,147.404877 
	C656.455811,148.459061 661.346191,148.523880 666.537109,147.018494 
	C662.230042,142.185944 658.561279,142.257095 651.507324,147.404877 
z"/>
<path fill="#000000" opacity="1.000000" stroke="none" 
	d="
M715.232056,135.949432 
	C718.161133,136.129227 720.696350,136.064117 723.115295,136.562622 
	C730.628601,138.110962 733.117371,142.067291 732.469299,149.798096 
	C731.928894,156.243423 732.095520,162.713760 733.131409,169.159439 
	C734.201111,175.815857 732.273071,180.044937 727.822021,181.799118 
	C726.237732,182.423462 724.617065,182.937592 723.055786,181.871735 
	C721.328125,180.692337 722.055969,178.968460 722.105286,177.323395 
	C722.376892,168.260376 722.686707,159.193802 722.667603,150.129105 
	C722.660217,146.618088 720.103638,144.574753 716.757080,144.591980 
	C712.964966,144.611511 709.070496,144.949905 705.411133,145.890961 
	C699.629272,147.377823 697.182007,151.356812 698.475159,158.282013 
	C699.593323,164.270096 697.532593,170.124695 698.850342,176.105515 
	C699.561829,179.334763 693.564819,183.781097 690.163940,183.297806 
	C688.112488,183.006256 688.123352,181.472336 688.045288,179.937668 
	C687.867615,176.445984 688.297607,172.868179 688.844177,169.565903 
	C690.080994,162.093155 687.937561,154.713593 689.209045,147.241150 
	C689.724487,144.211578 687.117188,140.943527 691.142456,138.256500 
	C695.718750,135.201645 697.293762,135.202499 700.212585,140.196625 
	C704.579041,137.178802 709.773987,136.914169 715.232056,135.949432 
z"/>
<path fill="#000000" opacity="1.000000" stroke="none" 
	d="
M533.366455,169.359039 
	C534.197266,175.557892 533.609924,180.612320 527.136536,183.147766 
	C522.798279,184.846909 520.543518,183.667419 521.012512,179.023697 
	C521.413330,175.055511 521.923218,171.117981 521.946533,167.114441 
	C522.025391,153.560623 522.847046,140.047318 522.422974,126.441040 
	C522.126465,116.925354 521.181946,107.390030 521.412170,97.842201 
	C521.516174,93.530991 524.960449,89.517677 529.284546,88.790741 
	C532.289612,88.285553 532.733704,90.651749 532.821655,92.495346 
	C533.071655,97.739304 533.168274,103.014122 532.896179,108.254517 
	C532.322327,119.306206 531.206909,130.326508 531.915466,141.426132 
	C532.231873,146.381973 532.911560,151.444321 531.565857,156.313141 
	C530.301697,160.886780 533.910767,164.600113 533.366455,169.359039 
z"/>
<path fill="#000000" opacity="1.000000" stroke="none" 
	d="
M500.878906,104.257050 
	C500.595520,101.814278 500.273834,99.838150 500.132904,97.849236 
	C499.856720,93.951736 504.081329,89.050301 507.906097,88.997032 
	C511.368896,88.948799 511.614075,91.846191 512.036438,94.250397 
	C512.845276,98.854309 511.751129,103.493309 511.510223,108.058174 
	C511.320068,111.662231 511.639008,115.301186 511.206207,118.911156 
	C509.585419,132.429291 512.023743,146.013626 510.547272,159.588333 
	C510.124176,163.478302 512.398438,167.578415 512.653564,171.750717 
	C512.965881,176.858673 511.676208,180.893524 506.490326,183.049927 
	C502.201050,184.833481 500.119720,183.598404 500.355621,178.895844 
	C500.680084,172.427200 501.661041,165.953720 501.485443,159.506149 
	C501.183380,148.414688 501.698853,137.311188 501.736298,126.245728 
	C501.760712,119.019516 499.782867,111.914314 500.878906,104.257050 
z"/>
<path fill="#000000" opacity="1.000000" stroke="none" 
	d="
M262.436829,162.414917 
	C265.357391,155.726166 272.354767,152.076935 274.175812,144.156311 
	C268.367401,144.242096 263.053589,143.132187 257.618927,143.881348 
	C255.649368,144.152847 253.292633,144.610657 252.301498,142.378036 
	C251.305298,140.133957 253.441162,138.753372 254.749649,137.352127 
	C256.746429,135.213837 259.494568,134.637573 262.105560,135.414108 
	C269.183838,137.519348 276.295044,138.128082 283.586975,136.998978 
	C285.422943,136.714691 287.403931,136.683868 288.447998,138.618835 
	C289.440704,140.458664 287.991272,141.740021 286.972076,143.014359 
	C279.930176,151.819153 272.899658,160.633453 265.782501,169.377151 
	C264.670135,170.743713 263.854218,172.034348 264.196350,174.197220 
	C268.422485,175.700104 272.911224,174.786301 277.239990,174.550217 
	C280.999603,174.345230 284.822327,174.640640 288.587189,173.661407 
	C290.093658,173.269608 292.472321,172.649658 293.450653,174.855759 
	C294.254425,176.668320 292.747955,177.951706 291.653961,179.179657 
	C289.331787,181.786148 286.806915,183.276825 282.921936,182.549515 
	C274.063843,180.891205 265.095276,181.807709 256.160400,182.099792 
	C253.769714,182.177963 250.667221,183.025909 249.407150,180.276215 
	C248.160782,177.556458 250.855804,175.731445 252.367599,173.901276 
	C255.533783,170.068329 258.941742,166.435089 262.436829,162.414917 
z"/>
<path fill="#000000" opacity="1.000000" stroke="none" 
	d="
M456.272308,49.511429 
	C453.846100,47.973591 451.486664,48.080925 449.158600,48.106667 
	C444.870056,48.154083 442.431641,49.729813 442.355469,54.642887 
	C442.301361,58.130978 442.254791,61.614822 442.442322,65.092705 
	C442.524353,66.613777 442.699585,68.100044 441.918823,69.468040 
	C440.777008,71.468704 439.096222,73.074478 436.731354,72.700348 
	C433.904480,72.253120 434.608307,69.648132 434.677155,67.810364 
	C435.256165,52.350712 435.013916,36.894176 434.687500,21.436020 
	C434.641907,19.276840 434.727051,17.141674 434.081512,15.007904 
	C433.356140,12.610207 434.530487,10.790067 436.487244,9.483912 
	C437.937195,8.516048 439.592346,7.968450 441.133179,9.138156 
	C443.062531,10.602811 442.426056,12.674437 442.168213,14.670105 
	C440.957825,24.039722 442.110809,33.357124 442.342712,43.516491 
	C447.188416,40.299591 451.972015,41.749050 456.505768,41.060383 
	C461.117523,40.359875 465.084229,45.165291 465.035858,50.689766 
	C464.989502,55.986103 464.752808,61.282745 464.806244,66.577171 
	C464.834167,69.341812 463.373474,70.930923 461.230194,72.076340 
	C457.683899,73.971550 455.850525,72.843010 456.073822,68.826553 
	C456.359589,63.686352 456.784027,58.551105 457.290863,53.427792 
	C457.426361,52.058159 457.741852,50.799553 456.272308,49.511429 
z"/>
<path fill="#000000" opacity="1.000000" stroke="none" 
	d="
M614.895630,180.909607 
	C609.252136,184.821716 609.164978,184.859863 606.453613,179.183777 
	C601.252808,168.296356 596.125854,157.373306 591.028503,146.436966 
	C588.747437,141.543030 590.115112,138.460098 595.660217,136.536484 
	C601.027710,134.674515 601.332947,139.392609 602.198608,142.408447 
	C604.953613,152.006317 608.697388,161.137863 613.948303,170.916458 
	C618.184265,163.356491 621.378479,156.423141 622.950378,148.836624 
	C623.805176,144.711395 624.589722,140.623276 627.849854,137.638214 
	C629.507202,136.120743 631.607788,134.961838 633.694641,136.575836 
	C635.688599,138.118011 633.961243,139.846375 633.347595,141.492813 
	C628.878845,153.482498 624.345825,165.444397 618.051147,176.634796 
	C617.245789,178.066513 616.132874,179.325256 614.895630,180.909607 
z"/>
<path fill="#000000" opacity="1.000000" stroke="none" 
	d="
M281.039185,73.052231 
	C277.391937,72.125931 278.099792,69.896210 279.373077,68.015976 
	C287.066528,56.654976 292.036987,43.968525 297.423523,31.478947 
	C297.748962,30.724386 298.264923,30.045982 298.732819,29.359852 
	C302.153015,24.344675 304.411102,24.148388 307.143402,29.623417 
	C310.827545,37.005680 314.530762,44.396519 317.644043,52.089550 
	C319.601746,56.926937 323.029877,61.235264 326.178406,65.500359 
	C328.122375,68.133728 327.627563,70.015640 325.627747,72.030853 
	C323.509277,74.165619 321.695435,74.336868 320.238220,71.281029 
	C318.737671,68.134338 316.926605,65.121536 315.620453,61.900497 
	C314.437500,58.983200 312.350037,57.717278 309.481476,57.842796 
	C303.860596,58.088734 298.170044,57.857178 292.675568,59.350994 
	C289.293762,60.270420 287.827362,63.150806 286.593597,66.100304 
	C285.440948,68.855904 284.549988,71.778229 281.039185,73.052231 
M306.106445,51.921776 
	C307.387543,51.532978 309.825775,51.883423 308.744415,49.529949 
	C306.865295,45.440369 304.503296,41.572681 301.625366,36.294399 
	C299.333618,42.657364 295.379242,46.518555 295.438446,52.242249 
	C299.154572,52.734783 302.272858,53.303955 306.106445,51.921776 
z"/>
<path fill="#000000" opacity="1.000000" stroke="none" 
	d="
M209.044708,139.551300 
	C215.074219,137.566483 220.367188,133.943222 226.958160,136.483521 
	C229.336075,137.400024 232.220612,137.253052 231.351959,140.939514 
	C230.521088,144.465546 226.475937,146.741486 223.315430,145.416260 
	C221.110443,144.491684 218.984055,143.747040 216.576706,144.245895 
	C205.445786,146.552444 206.032837,147.558594 206.097626,159.001862 
	C206.128448,164.443237 207.241150,169.891205 206.992798,175.402908 
	C206.845718,178.666718 205.440567,180.567780 202.173706,181.419098 
	C197.217010,182.710754 196.501434,182.043091 196.611023,176.828186 
	C196.839752,165.944138 198.178497,155.015610 195.560089,144.206680 
	C194.853424,141.289520 195.755676,138.938583 198.790665,137.771759 
	C201.497040,136.731262 204.221100,134.604797 206.748993,138.158325 
	C207.188812,138.776581 208.032852,139.107300 209.044708,139.551300 
z"/>
<path fill="#000000" opacity="1.000000" stroke="none" 
	d="
M337.136597,56.977577 
	C337.241852,60.561047 336.605194,63.667400 337.043182,66.860397 
	C337.427307,69.660973 335.983337,71.802803 332.995728,72.150444 
	C329.364716,72.572960 329.551849,69.525475 329.452454,67.392632 
	C329.136536,60.614109 328.946991,53.820057 329.029114,47.035885 
	C329.087555,42.205582 332.260437,39.935059 336.593994,41.675098 
	C339.287598,42.756653 341.489014,41.628361 343.829834,41.149715 
	C354.453156,38.977470 360.636932,44.353184 358.883728,55.013916 
	C358.235138,58.957684 360.233551,62.464119 359.393646,66.302643 
	C358.952850,68.317139 358.698608,70.235863 356.881561,71.470299 
	C355.723724,72.256927 354.405029,72.525375 353.080475,71.987663 
	C351.579803,71.378471 351.518555,70.056839 351.553497,68.648827 
	C351.664856,64.161392 351.781433,59.671715 351.753693,55.183781 
	C351.716431,49.150848 350.269592,47.285625 345.911285,47.316563 
	C339.967651,47.358749 337.281311,49.857468 337.076691,55.542072 
	C337.064789,55.873436 337.104523,56.206657 337.136597,56.977577 
z"/>
<path fill="#000000" opacity="1.000000" stroke="none" 
	d="
M374.583313,30.833866 
	C375.558868,33.519444 375.050842,35.782810 374.536469,38.074814 
	C373.738373,41.630981 375.091614,43.204090 378.786835,42.409615 
	C379.274139,42.304848 379.743256,42.102539 380.233337,42.025864 
	C382.504883,41.670494 385.751892,39.544170 386.438141,43.274578 
	C387.070557,46.712345 383.922119,48.509884 380.831055,49.124401 
	C374.058289,50.470856 374.048492,50.362309 374.311401,57.202717 
	C374.356049,58.364124 374.210419,59.531792 374.225372,60.695633 
	C374.250732,62.668694 373.846039,64.903938 375.829041,66.167328 
	C378.030640,67.569946 379.470917,65.694664 381.087555,64.580246 
	C382.399780,63.675671 383.884857,62.279724 385.376099,64.260284 
	C386.591034,65.873886 386.044983,67.667793 384.755890,68.780640 
	C380.989288,72.032234 376.399811,73.722359 371.507843,73.502647 
	C368.301208,73.358627 366.773895,70.780922 366.790833,67.483772 
	C366.813934,62.990211 366.778107,58.496288 366.755371,54.002579 
	C366.744049,51.769070 366.551117,49.734383 363.952515,48.747280 
	C359.920898,47.215847 360.721588,44.545673 363.550049,43.038410 
	C366.773804,41.320499 367.137970,39.141956 366.630737,36.087261 
	C366.181122,33.379662 367.147888,31.160185 369.546234,29.703850 
	C371.346069,28.610950 373.016144,28.683611 374.583313,30.833866 
z"/>
<path fill="#000000" opacity="1.000000" stroke="none" 
	d="
M409.043701,72.202980 
	C403.586670,70.425041 399.927338,67.413422 398.910156,61.871300 
	C397.583618,54.643559 401.716583,49.751560 406.460388,45.465469 
	C411.458740,40.949413 417.659363,39.943813 424.239777,40.993309 
	C425.785187,41.239777 427.364532,41.446468 427.638000,43.293095 
	C427.895325,45.030796 426.560333,45.974110 425.295624,46.814373 
	C422.750916,48.505074 419.880280,48.171917 417.058228,48.051559 
	C414.371429,47.936977 411.725891,47.908424 409.407623,49.622353 
	C403.834503,53.742668 404.781036,62.098957 411.349823,65.758430 
	C416.114471,68.412804 420.807800,68.542679 425.329773,64.961288 
	C426.764465,63.825043 428.583984,61.619083 430.371948,64.039955 
	C431.852844,66.045120 430.088287,68.013412 428.564178,69.171188 
	C422.791199,73.556511 416.412994,75.043465 409.043701,72.202980 
z"/>
<path fill="#000000" opacity="1.000000" stroke="none" 
	d="
M296.888184,172.964935 
	C297.734192,164.620941 297.794830,156.818588 296.040253,148.948105 
	C294.616486,142.561661 296.185303,139.968903 300.993347,137.951462 
	C305.857880,135.910294 307.861023,137.108124 307.053162,142.267365 
	C305.910889,149.562546 306.207123,156.847015 306.248688,164.146881 
	C306.262817,166.629929 306.397217,169.134476 306.761566,171.586868 
	C307.100037,173.864792 306.643005,175.973633 305.596527,177.840622 
	C303.940552,180.794968 301.534363,184.106552 298.003906,183.197723 
	C294.084137,182.188705 296.711945,178.474136 296.730164,175.902390 
	C296.736053,175.072281 296.818268,174.242691 296.888184,172.964935 
z"/>
<path fill="#000000" opacity="1.000000" stroke="none" 
	d="
M232.872391,144.205139 
	C233.192078,140.077911 236.307434,138.577072 238.855652,136.989502 
	C241.789581,135.161652 244.833755,137.562531 244.364044,141.330475 
	C243.026321,152.061462 242.689972,162.766373 244.156204,173.510544 
	C244.432404,175.534393 243.867081,177.564514 242.435913,179.081253 
	C240.520462,181.111191 238.451187,183.847458 235.382965,182.745575 
	C232.644180,181.761993 233.665390,178.602768 233.921219,176.486099 
	C235.214035,165.789597 234.894638,155.182526 232.872391,144.205139 
z"/>
<path fill="#000000" opacity="1.000000" stroke="none" 
	d="
M395.954376,57.439178 
	C395.424164,59.662426 395.143768,61.440105 395.741669,63.261375 
	C396.282410,64.908600 396.123718,66.539398 395.414185,68.106270 
	C394.373932,70.403381 393.114563,73.223373 390.291473,72.595596 
	C387.529449,71.981384 387.980927,69.141190 388.337158,66.733131 
	C389.241821,60.617142 387.960114,54.533096 387.835266,48.427696 
	C387.793396,46.381248 387.755280,44.442860 389.382721,42.912643 
	C390.735138,41.641010 392.162628,40.325214 394.182770,41.004837 
	C396.371979,41.741325 396.270050,43.777660 396.256836,45.587334 
	C396.229095,49.390987 396.101257,53.193905 395.954376,57.439178 
z"/>
<path fill="#000000" opacity="1.000000" stroke="none" 
	d="
M471.252380,43.518852 
	C472.999847,41.867825 474.523468,40.197227 476.705902,41.251873 
	C479.201599,42.457890 477.648865,44.650547 477.638916,46.521275 
	C477.608459,52.247837 477.696838,57.979023 477.928955,63.700703 
	C478.003662,65.541885 478.346893,67.343468 477.278687,68.982941 
	C475.994263,70.954239 474.510162,73.154114 471.894653,72.675644 
	C468.716675,72.094269 469.821045,69.123924 470.116974,67.323074 
	C471.124939,61.189281 470.335480,55.128326 469.976410,49.042210 
	C469.867859,47.202641 469.731995,45.389545 471.252380,43.518852 
z"/>
<path fill="#000000" opacity="1.000000" stroke="none" 
	d="
M310.113159,112.477219 
	C309.552948,116.054733 302.280975,123.214241 299.447571,123.359436 
	C297.080841,123.480721 296.247162,121.825233 297.105408,120.131844 
	C298.897736,116.595406 300.989227,113.063126 304.255249,110.707062 
	C306.274200,109.250633 308.385254,110.366356 310.113159,112.477219 
z"/>
<path fill="#000000" opacity="1.000000" stroke="none" 
	d="
M234.813812,117.824341 
	C237.001556,115.574921 238.987122,113.622429 240.899536,111.600746 
	C242.569504,109.835342 244.439468,109.784035 246.175125,111.195328 
	C248.165894,112.814056 247.601028,114.801498 246.070099,116.359436 
	C243.756882,118.713463 241.083908,120.666527 238.088516,122.091133 
	C236.796600,122.705566 235.281662,123.644676 234.040894,122.127930 
	C232.892853,120.724525 233.686401,119.346489 234.813812,117.824341 
z"/>
<path fill="#000000" opacity="1.000000" stroke="none" 
	d="
M392.344971,25.241760 
	C394.240356,24.225176 395.872528,21.684397 397.610626,24.347021 
	C398.962982,26.418674 397.312256,28.048349 395.670288,29.344107 
	C395.150238,29.754494 394.608704,30.141031 394.115662,30.581728 
	C392.485870,32.038692 390.617493,33.981342 388.658966,31.672859 
	C386.843384,29.532835 389.335052,28.205753 390.585724,26.803009 
	C391.023682,26.311750 391.564270,25.912006 392.344971,25.241760 
z"/>
<path fill="#000000" opacity="1.000000" stroke="none" 
	d="
M472.556976,27.406647 
	C473.338379,26.518976 473.848816,25.864977 474.462585,25.329372 
	C476.046173,23.947489 477.988220,22.795748 479.577637,24.828379 
	C480.995026,26.641073 479.364105,28.158571 477.983551,29.380623 
	C477.248688,30.031122 476.458496,30.630810 475.639130,31.171413 
	C474.331238,32.034351 472.925018,33.843651 471.364960,32.398735 
	C469.566101,30.732687 471.381287,29.156231 472.556976,27.406647 
z"/>
</svg>