<?xml version="1.0" standalone="no"?>
<!DOCTYPE svg PUBLIC "-//W3C//DTD SVG 20010904//EN"
 "http://www.w3.org/TR/2001/REC-SVG-20010904/DTD/svg10.dtd">
<svg version="1.0" xmlns="http://www.w3.org/2000/svg"
 width="192.000000pt" height="192.000000pt" viewBox="0 0 192.000000 192.000000"
 preserveAspectRatio="xMidYMid meet">

<g transform="translate(0.000000,192.000000) scale(0.100000,-0.100000)"
fill="#000000" stroke="none">
<path d="M1167 1763 c-38 -10 -8 -28 51 -31 l62 -3 0 -67 c1 -83 15 -64 22 29
l6 67 -46 6 c-48 6 -67 6 -95 -1z"/>
<path d="M1207 1694 c-13 -13 -7 -52 8 -58 17 -6 29 13 23 40 -3 19 -20 28
-31 18z"/>
<path d="M1196 1574 c-8 -22 -5 -24 22 -17 12 3 22 12 22 19 0 20 -37 17 -44
-2z"/>
<path d="M1275 1570 c-3 -11 -13 -20 -21 -20 -17 0 -19 -16 -1 -23 6 -3 -1 -6
-16 -6 -34 -1 -70 16 -62 30 11 16 -23 10 -90 -18 -36 -15 -64 -32 -62 -37 2
-6 29 -12 60 -14 54 -3 56 -4 54 -30 -2 -21 2 -27 18 -27 17 0 20 6 17 34 -2
28 0 32 12 22 7 -6 21 -8 31 -5 15 6 16 4 5 -16 -14 -26 -2 -44 26 -38 19 4
21 10 9 41 -6 14 -2 17 24 17 32 0 39 -8 20 -27 -15 -15 -3 -33 23 -33 17 0
20 4 15 30 -6 27 -4 30 18 30 29 0 28 4 14 -135 -5 -55 -12 -181 -14 -280 -5
-175 -5 -180 -27 -188 l-23 -8 21 -18 c12 -9 25 -27 28 -39 10 -29 22 -28 30
3 8 32 34 32 38 0 4 -32 21 -34 28 -4 8 33 30 36 30 4 0 -20 4 -26 18 -23 9 2
18 9 18 16 1 6 2 17 3 22 0 6 8 10 16 10 18 0 20 -81 5 -195 -5 -38 -10 -127
-11 -197 -3 -125 -3 -127 -29 -139 l-25 -12 40 -9 c22 -5 81 -7 130 -6 l90 3
2 155 c1 85 7 184 12 220 22 137 22 140 0 140 -17 0 -19 -7 -19 -67 0 -95 -13
-111 -39 -49 -12 26 -21 52 -21 57 0 5 -20 9 -44 9 l-44 0 2 64 2 64 -45 -2
c-25 -2 -52 -5 -60 -7 -9 -2 -17 6 -21 21 -5 21 -12 25 -38 24 l-32 -2 0 119
c0 66 4 161 10 212 5 51 11 124 13 162 2 39 8 78 12 88 6 13 2 17 -16 18 -13
0 -33 2 -44 4 -10 2 -25 -1 -31 -6 -8 -7 -14 -6 -19 1 -4 6 -13 9 -21 6 -8 -3
-14 -1 -14 4 0 10 20 14 55 12 20 -2 20 -2 1 13 -11 8 -23 15 -28 15 -4 0 -8
7 -8 15 0 22 -18 18 -25 -5z m-155 -50 c-6 -11 -13 -20 -16 -20 -2 0 0 9 6 20
6 11 13 20 16 20 2 0 0 -9 -6 -20z m40 16 c0 -3 -4 -8 -10 -11 -5 -3 -10 -1
-10 4 0 6 5 11 10 11 6 0 10 -2 10 -4z m260 -645 c0 -12 -20 -25 -27 -18 -7 7
6 27 18 27 5 0 9 -4 9 -9z"/>
<path d="M1054 1455 c-7 -18 3 -35 21 -35 18 0 26 15 19 34 -8 20 -33 21 -40
1z"/>
<path d="M1037 1374 c-10 -11 -9 -74 2 -74 12 0 23 62 13 72 -5 5 -11 5 -15 2z"/>
<path d="M1073 1355 c-3 -9 -3 -18 0 -21 9 -9 27 6 27 22 0 19 -19 18 -27 -1z"/>
<path d="M1119 1368 c-1 -2 -2 -19 -4 -38 -3 -34 -3 -34 11 -10 16 30 18 50 4
50 -5 0 -10 -1 -11 -2z"/>
<path d="M1164 1355 c-9 -22 1 -29 15 -11 8 10 9 16 1 21 -5 3 -13 -1 -16 -10z"/>
<path d="M1207 1363 c-4 -3 -7 -13 -7 -21 0 -12 3 -12 15 -2 8 7 15 16 15 21
0 11 -14 12 -23 2z"/>
<path d="M1247 1363 c-4 -3 -7 -13 -7 -21 0 -12 3 -12 15 -2 8 7 15 16 15 21
0 11 -14 12 -23 2z"/>
<path d="M1287 1363 c-4 -3 -7 -11 -7 -17 0 -6 5 -5 12 2 6 6 9 14 7 17 -3 3
-9 2 -12 -2z"/>
<path d="M1335 1359 c-8 -11 -15 -79 -9 -79 2 0 8 18 14 41 11 41 8 61 -5 38z"/>
<path d="M1160 1275 c0 -23 2 -24 20 -15 11 6 20 13 20 15 0 2 -9 9 -20 15
-18 9 -20 8 -20 -15z"/>
<path d="M1243 1275 c-3 -9 -3 -19 1 -22 7 -7 36 16 36 28 0 15 -30 10 -37 -6z"/>
<path d="M1222 1080 c0 -14 2 -19 5 -12 2 6 2 18 0 25 -3 6 -5 1 -5 -13z"/>
<path d="M249 935 c-1 -3 -3 -9 -4 -15 -1 -5 -3 -15 -4 -21 0 -6 -18 -10 -38
-9 -71 3 -81 -5 -43 -37 11 -10 20 -28 20 -40 0 -34 29 -29 36 6 7 36 34 31
34 -6 0 -35 34 -27 38 10 5 38 32 36 32 -4 0 -24 4 -30 18 -27 9 2 18 13 20
26 2 12 10 22 19 22 14 0 15 -12 8 -97 -7 -100 -12 -221 -14 -350 -1 -67 -3
-73 -22 -73 -15 0 -19 5 -15 15 3 8 1 15 -4 15 -6 0 -10 -9 -10 -19 0 -15 10
-20 49 -26 28 -4 56 -3 65 2 8 4 58 4 110 -1 86 -9 96 -12 90 -28 -9 -30 10
-20 25 13 15 35 5 49 -36 49 -13 0 -23 6 -24 13 0 6 -4 2 -9 -10 -10 -24 -34
-29 -59 -14 -7 5 -11 15 -7 22 4 8 -1 4 -10 -8 -21 -30 -54 -30 -54 -2 0 18
-4 20 -25 15 l-25 -6 5 117 c7 177 8 188 25 188 10 0 16 12 18 38 4 50 30 50
34 0 4 -50 26 -55 30 -6 2 26 8 39 20 41 15 3 17 -3 15 -35 -1 -29 2 -38 16
-41 14 -3 17 4 17 37 0 34 3 41 20 41 16 0 19 -6 17 -36 -1 -22 3 -39 11 -41
13 -5 16 34 6 84 l-6 30 -99 0 c-55 0 -102 3 -106 6 -3 4 0 14 7 23 11 12 11
17 1 23 -7 5 -11 21 -9 36 3 24 -2 29 -37 43 -22 9 -42 19 -45 23 -5 7 -27 12
-47 10 -6 0 -14 -9 -16 -18 -4 -14 -5 -12 -6 5 -1 18 -28 33 -32 17z"/>
<path d="M1157 923 c-11 -10 -8 -43 3 -43 6 0 10 11 10 25 0 26 -2 29 -13 18z"/>
<path d="M893 900 c-6 -24 -23 -27 -23 -3 0 14 -2 14 -20 -2 -17 -15 -32 -17
-110 -12 -51 4 -90 3 -90 -2 0 -20 13 -41 25 -41 8 0 15 -12 17 -27 4 -35 30
-37 38 -3 8 33 44 34 48 3 5 -32 42 -31 42 0 0 13 3 27 6 30 12 11 43 -13 46
-35 4 -31 31 -29 38 2 3 14 14 27 24 28 18 4 19 -2 12 -114 -4 -66 -9 -168
-12 -229 -4 -87 -9 -113 -22 -124 -16 -13 -16 -13 1 -8 13 5 17 1 17 -17 0
-33 -36 -42 -52 -13 -18 32 -20 58 -7 74 10 11 9 12 -5 7 -9 -3 -16 -1 -16 5
0 6 -4 11 -9 11 -10 0 -31 -77 -31 -113 l0 -25 115 -1 c114 0 147 10 83 27
-39 10 -45 29 -43 132 3 126 4 127 25 133 14 4 20 0 21 -11 0 -14 2 -13 9 3
14 32 12 35 -14 25 -21 -7 -26 -6 -31 10 -8 25 1 40 24 40 15 0 18 8 17 37 -1
29 3 38 18 41 16 3 17 -1 11 -37 -6 -37 -5 -41 14 -41 17 0 21 6 21 35 0 27 4
35 19 35 15 0 18 -7 17 -36 -1 -22 4 -39 12 -41 8 -3 12 5 12 24 0 38 16 61
30 47 15 -15 9 -109 -7 -110 -7 -1 -20 -2 -28 -3 -8 0 -15 -6 -15 -12 0 -6 12
-9 27 -7 30 3 29 20 17 -152 -3 -30 -4 -66 -4 -79 0 -31 -10 -47 -20 -30 -7
10 -16 10 -50 0 -22 -6 -38 -16 -35 -22 8 -12 315 -10 315 2 0 5 -9 9 -19 9
-11 0 -23 9 -26 20 -6 19 -8 19 -28 5 -12 -8 -33 -15 -47 -14 -23 0 -23 1 -5
9 17 7 17 9 3 9 -15 1 -18 11 -19 54 -1 28 -1 56 1 62 1 5 4 32 7 60 3 27 10
55 15 62 6 7 4 19 -4 32 -11 17 -10 22 4 33 9 7 18 29 20 48 2 26 7 34 19 32
21 -3 29 16 22 51 -6 29 -33 38 -33 10 0 -9 -3 -13 -7 -10 -3 4 -12 2 -20 -4
-10 -9 -13 -7 -13 10 0 11 -5 21 -11 21 -6 0 -9 -6 -6 -14 9 -22 -5 -28 -19
-8 -8 10 -13 12 -14 5 0 -7 -7 -10 -16 -6 -9 3 -19 0 -24 -6 -6 -10 -12 -10
-28 0 -17 11 -24 11 -34 1 -6 -6 -29 -12 -51 -12 -40 0 -41 1 -20 58 3 6 0 12
-6 12 -6 0 -11 11 -11 25 0 23 -3 25 -51 25 -46 0 -50 2 -44 20 3 11 3 20 0
20 -4 0 -9 -9 -12 -20z m347 -195 c0 -8 -4 -15 -10 -15 -5 0 -10 7 -10 15 0 8
5 15 10 15 6 0 10 -7 10 -15z"/>
<path d="M1065 821 c-3 -6 11 -15 32 -20 47 -13 53 -13 53 -1 0 6 -9 10 -20
10 -11 0 -20 5 -20 10 0 13 -37 13 -45 1z"/>
<path d="M761 751 c-16 -10 -32 -109 -19 -117 4 -3 8 12 8 33 0 49 19 76 53
76 15 0 27 3 27 8 0 12 -51 11 -69 0z"/>
<path d="M160 713 c0 -22 2 -25 10 -13 13 20 13 40 0 40 -5 0 -10 -12 -10 -27z"/>
<path d="M207 734 c-4 -4 -7 -14 -7 -23 0 -11 3 -12 11 -4 6 6 10 16 7 23 -2
6 -7 8 -11 4z"/>
<path d="M240 724 c0 -8 5 -12 10 -9 6 3 10 10 10 16 0 5 -4 9 -10 9 -5 0 -10
-7 -10 -16z"/>
<path d="M274 726 c-8 -22 3 -33 18 -18 9 9 9 15 0 24 -9 9 -13 7 -18 -6z"/>
<path d="M357 734 c-4 -4 -7 -17 -7 -28 1 -19 1 -20 11 -3 11 19 8 43 -4 31z"/>
<path d="M1337 734 c-4 -4 -7 -17 -7 -28 0 -19 1 -19 17 -3 12 11 14 20 7 27
-6 6 -13 7 -17 4z"/>
<path d="M310 714 c0 -8 5 -12 10 -9 6 3 10 10 10 16 0 5 -4 9 -10 9 -5 0 -10
-7 -10 -16z"/>
<path d="M665 719 c-4 -6 -5 -13 -2 -16 7 -7 27 6 27 18 0 12 -17 12 -25 -2z"/>
<path d="M710 715 c0 -8 5 -15 10 -15 6 0 10 7 10 15 0 8 -4 15 -10 15 -5 0
-10 -7 -10 -15z"/>
<path d="M868 695 c-2 -19 0 -35 4 -35 4 0 8 9 8 19 0 11 5 23 10 26 6 4 8 11
5 16 -12 19 -23 8 -27 -26z"/>
<path d="M912 713 c-6 -11 -7 -25 -3 -32 6 -9 10 -5 15 14 9 33 1 44 -12 18z"/>
<path d="M1376 714 c-8 -21 -8 -24 3 -24 12 0 22 28 12 35 -5 3 -12 -2 -15
-11z"/>
<path d="M1406 714 c-4 -10 -1 -14 6 -12 15 5 23 28 10 28 -5 0 -13 -7 -16
-16z"/>
<path d="M1444 721 c-10 -11 -3 -32 9 -24 6 4 18 8 26 8 8 0 16 5 18 11 4 11
-43 15 -53 5z"/>
<path d="M1517 724 c-4 -4 -7 -14 -7 -23 0 -11 3 -12 11 -4 6 6 10 16 7 23 -2
6 -7 8 -11 4z"/>
<path d="M787 694 c-13 -13 -7 -52 8 -58 17 -6 29 13 23 40 -3 19 -20 28 -31
18z"/>
<path d="M1305 673 c-9 -25 11 -38 24 -15 8 15 7 21 -3 25 -8 3 -17 -1 -21
-10z"/>
<path d="M447 603 c-4 -3 -7 -11 -7 -17 0 -6 5 -5 12 2 6 6 9 14 7 17 -3 3 -9
2 -12 -2z"/>
<path d="M470 596 c0 -14 62 -15 67 -1 2 6 -13 11 -32 11 -21 1 -35 -3 -35
-10z"/>
<path d="M568 602 c-35 -7 -17 -17 30 -17 26 0 47 4 47 9 0 9 -49 15 -77 8z"/>
<path d="M1040 593 c0 -9 6 -13 15 -9 8 3 15 1 15 -3 0 -15 35 -5 38 10 2 10
-8 14 -33 15 -25 1 -35 -3 -35 -13z"/>
<path d="M1274 598 c-8 -12 -4 -15 21 -20 12 -2 20 3 20 11 0 16 -32 24 -41 9z"/>
<path d="M760 549 c0 -5 5 -7 10 -4 6 3 10 8 10 11 0 2 -4 4 -10 4 -5 0 -10
-5 -10 -11z"/>
<path d="M825 550 c3 -5 8 -10 11 -10 2 0 4 5 4 10 0 6 -5 10 -11 10 -5 0 -7
-4 -4 -10z"/>
<path d="M437 543 c-13 -13 -7 -53 8 -53 10 0 15 10 15 30 0 29 -9 38 -23 23z"/>
<path d="M787 536 c-6 -16 2 -28 14 -20 12 7 11 34 0 34 -5 0 -11 -6 -14 -14z"/>
<path d="M780 459 c0 -37 -13 -53 -23 -26 -2 6 -8 -1 -12 -18 -3 -16 -9 -37
-13 -45 -3 -8 -6 -24 -6 -35 -1 -15 -7 -19 -23 -17 -13 2 -23 -2 -23 -7 0 -6
16 -11 35 -11 32 0 35 3 35 28 0 31 15 54 45 70 27 14 30 88 4 95 -16 4 -19
-1 -19 -34z"/>
<path d="M301 424 c0 -11 3 -14 6 -6 3 7 2 16 -1 19 -3 4 -6 -2 -5 -13z"/>
<path d="M1010 409 c0 -5 5 -7 10 -4 6 3 10 8 10 11 0 2 -4 4 -10 4 -5 0 -10
-5 -10 -11z"/>
<path d="M1105 410 c-3 -5 -1 -10 4 -10 6 0 11 5 11 10 0 6 -2 10 -4 10 -3 0
-8 -4 -11 -10z"/>
<path d="M240 350 c0 -18 3 -19 20 -10 22 12 18 30 -6 30 -8 0 -14 -9 -14 -20z"/>
<path d="M1275 360 c-3 -5 1 -10 10 -10 9 0 13 5 10 10 -3 6 -8 10 -10 10 -2
0 -7 -4 -10 -10z"/>
<path d="M1037 354 c-13 -13 -7 -24 14 -24 11 0 19 5 17 12 -5 14 -22 21 -31
12z"/>
<path d="M1406 320 c-14 -29 -14 -30 7 -30 18 0 19 2 7 10 -13 8 -11 11 8 16
24 7 31 34 8 34 -8 0 -21 -13 -30 -30z"/>
<path d="M160 325 c0 -10 10 -15 33 -15 30 1 31 1 13 15 -25 19 -46 19 -46 0z"/>
<path d="M88 3 c7 -3 16 -2 19 1 4 3 -2 6 -13 5 -11 0 -14 -3 -6 -6z"/>
</g>
</svg>
